<svg viewBox="0,0,954,600" xmlns="http://www.w3.org/2000/svg" xmlns:xlink="http://www.w3.org/1999/xlink"><g transform="translate(0,565)" fill="none" font-size="10" font-family="sans-serif" text-anchor="middle"><g class="tick" opacity="1" transform="translate(40.5,0)"><line stroke="currentColor" y2="6"/><text fill="currentColor" y="9" dy="0.71em">4.0</text></g><g class="tick" opacity="1" transform="translate(152.25,0)"><line stroke="currentColor" y2="6"/><text fill="currentColor" y="9" dy="0.71em">4.5</text></g><g class="tick" opacity="1" transform="translate(264,0)"><line stroke="currentColor" y2="6"/><text fill="currentColor" y="9" dy="0.71em">5.0</text></g><g class="tick" opacity="1" transform="translate(375.75,0)"><line stroke="currentColor" y2="6"/><text fill="currentColor" y="9" dy="0.71em">5.5</text></g><g class="tick" opacity="1" transform="translate(487.5,0)"><line stroke="currentColor" y2="6"/><text fill="currentColor" y="9" dy="0.71em">6.0</text></g><g class="tick" opacity="1" transform="translate(599.25,0)"><line stroke="currentColor" y2="6"/><text fill="currentColor" y="9" dy="0.71em">6.5</text></g><g class="tick" opacity="1" transform="translate(711,0)"><line stroke="currentColor" y2="6"/><text fill="currentColor" y="9" dy="0.71em">7.0</text></g><g class="tick" opacity="1" transform="translate(822.75,0)"><line stroke="currentColor" y2="6"/><text fill="currentColor" y="9" dy="0.71em">7.5</text></g><g class="tick" opacity="1" transform="translate(934.5,0)"><line stroke="currentColor" y2="6"/><text fill="currentColor" y="9" dy="0.71em">8.0</text></g><text x="954" y="31" fill="currentColor" text-anchor="end">Sepal length (cm) →</text></g><g transform="translate(40,0)" fill="none" font-size="10" font-family="sans-serif" text-anchor="end"><g class="tick" opacity="1" transform="translate(0,565.5)"><line stroke="currentColor" x2="-6"/><text fill="currentColor" x="-9" dy="0.32em">2.0</text></g><g class="tick" opacity="1" transform="translate(0,520.5)"><line stroke="currentColor" x2="-6"/><text fill="currentColor" x="-9" dy="0.32em">2.2</text></g><g class="tick" opacity="1" transform="translate(0,475.50000000000006)"><line stroke="currentColor" x2="-6"/><text fill="currentColor" x="-9" dy="0.32em">2.4</text></g><g class="tick" opacity="1" transform="translate(0,430.5)"><line stroke="currentColor" x2="-6"/><text fill="currentColor" x="-9" dy="0.32em">2.6</text></g><g class="tick" opacity="1" transform="translate(0,385.5)"><line stroke="currentColor" x2="-6"/><text fill="currentColor" x="-9" dy="0.32em">2.8</text></g><g class="tick" opacity="1" transform="translate(0,340.50000000000006)"><line stroke="currentColor" x2="-6"/><text fill="currentColor" x="-9" dy="0.32em">3.0</text></g><g class="tick" opacity="1" transform="translate(0,295.5)"><line stroke="currentColor" x2="-6"/><text fill="currentColor" x="-9" dy="0.32em">3.2</text></g><g class="tick" opacity="1" transform="translate(0,250.50000000000006)"><line stroke="currentColor" x2="-6"/><text fill="currentColor" x="-9" dy="0.32em">3.4</text></g><g class="tick" opacity="1" transform="translate(0,205.5)"><line stroke="currentColor" x2="-6"/><text fill="currentColor" x="-9" dy="0.32em">3.6</text></g><g class="tick" opacity="1" transform="translate(0,160.5000000000001)"><line stroke="currentColor" x2="-6"/><text fill="currentColor" x="-9" dy="0.32em">3.8</text></g><g class="tick" opacity="1" transform="translate(0,115.50000000000004)"><line stroke="currentColor" x2="-6"/><text fill="currentColor" x="-9" dy="0.32em">4.0</text></g><g class="tick" opacity="1" transform="translate(0,70.50000000000003)"><line stroke="currentColor" x2="-6"/><text fill="currentColor" x="-9" dy="0.32em">4.2</text></g><g class="tick" opacity="1" transform="translate(0,25.5)"><line stroke="currentColor" x2="-6"/><text fill="currentColor" x="-9" dy="0.32em">4.4</text></g><text x="-40" y="10" fill="currentColor" text-anchor="start">↑ Sepal width (cm)</text></g><g stroke="currentColor" stroke-opacity="0.1"><g><line x1="40.5" x2="40.5" y1="25" y2="565"/><line x1="152.25" x2="152.25" y1="25" y2="565"/><line x1="264" x2="264" y1="25" y2="565"/><line x1="375.75" x2="375.75" y1="25" y2="565"/><line x1="487.5" x2="487.5" y1="25" y2="565"/><line x1="599.25" x2="599.25" y1="25" y2="565"/><line x1="711" x2="711" y1="25" y2="565"/><line x1="822.75" x2="822.75" y1="25" y2="565"/><line x1="934.5" x2="934.5" y1="25" y2="565"/></g><g><line y1="565.5" y2="565.5" x1="40" x2="934"/><line y1="520.5" y2="520.5" x1="40" x2="934"/><line y1="475.50000000000006" y2="475.50000000000006" x1="40" x2="934"/><line y1="430.5" y2="430.5" x1="40" x2="934"/><line y1="385.5" y2="385.5" x1="40" x2="934"/><line y1="340.50000000000006" y2="340.50000000000006" x1="40" x2="934"/><line y1="295.5" y2="295.5" x1="40" x2="934"/><line y1="250.50000000000006" y2="250.50000000000006" x1="40" x2="934"/><line y1="205.5" y2="205.5" x1="40" x2="934"/><line y1="160.5000000000001" y2="160.5000000000001" x1="40" x2="934"/><line y1="115.50000000000004" y2="115.50000000000004" x1="40" x2="934"/><line y1="70.50000000000003" y2="70.50000000000003" x1="40" x2="934"/><line y1="25.5" y2="25.5" x1="40" x2="934"/></g></g><g stroke-width="1.5" font-family="sans-serif" font-size="10"><path transform="translate(285.8499999999999,227.50000000000006)" fill="#1f77b4" d="M4.51351666838205,0A4.51351666838205,4.51351666838205,0,1,1,-4.51351666838205,0A4.51351666838205,4.51351666838205,0,1,1,4.51351666838205,0"/><path transform="translate(241.1500000000001,340.00000000000006)" fill="#1f77b4" d="M4.51351666838205,0A4.51351666838205,4.51351666838205,0,1,1,-4.51351666838205,0A4.51351666838205,4.51351666838205,0,1,1,4.51351666838205,0"/><path transform="translate(196.45000000000005,295)" fill="#1f77b4" d="M4.51351666838205,0A4.51351666838205,4.51351666838205,0,1,1,-4.51351666838205,0A4.51351666838205,4.51351666838205,0,1,1,4.51351666838205,0"/><path transform="translate(174.0999999999999,317.5)" fill="#1f77b4" d="M4.51351666838205,0A4.51351666838205,4.51351666838205,0,1,1,-4.51351666838205,0A4.51351666838205,4.51351666838205,0,1,1,4.51351666838205,0"/><path transform="translate(263.5,205)" fill="#1f77b4" d="M4.51351666838205,0A4.51351666838205,4.51351666838205,0,1,1,-4.51351666838205,0A4.51351666838205,4.51351666838205,0,1,1,4.51351666838205,0"/><path transform="translate(352.9000000000001,137.50000000000009)" fill="#1f77b4" d="M4.51351666838205,0A4.51351666838205,4.51351666838205,0,1,1,-4.51351666838205,0A4.51351666838205,4.51351666838205,0,1,1,4.51351666838205,0"/><path transform="translate(174.0999999999999,250.00000000000006)" fill="#1f77b4" d="M4.51351666838205,0A4.51351666838205,4.51351666838205,0,1,1,-4.51351666838205,0A4.51351666838205,4.51351666838205,0,1,1,4.51351666838205,0"/><path transform="translate(263.5,250.00000000000006)" fill="#1f77b4" d="M4.51351666838205,0A4.51351666838205,4.51351666838205,0,1,1,-4.51351666838205,0A4.51351666838205,4.51351666838205,0,1,1,4.51351666838205,0"/><path transform="translate(129.4000000000001,362.50000000000006)" fill="#1f77b4" d="M4.51351666838205,0A4.51351666838205,4.51351666838205,0,1,1,-4.51351666838205,0A4.51351666838205,4.51351666838205,0,1,1,4.51351666838205,0"/><path transform="translate(241.1500000000001,317.5)" fill="#1f77b4" d="M4.51351666838205,0A4.51351666838205,4.51351666838205,0,1,1,-4.51351666838205,0A4.51351666838205,4.51351666838205,0,1,1,4.51351666838205,0"/><path transform="translate(352.9000000000001,182.50000000000006)" fill="#1f77b4" d="M4.51351666838205,0A4.51351666838205,4.51351666838205,0,1,1,-4.51351666838205,0A4.51351666838205,4.51351666838205,0,1,1,4.51351666838205,0"/><path transform="translate(218.79999999999995,250.00000000000006)" fill="#1f77b4" d="M4.51351666838205,0A4.51351666838205,4.51351666838205,0,1,1,-4.51351666838205,0A4.51351666838205,4.51351666838205,0,1,1,4.51351666838205,0"/><path transform="translate(218.79999999999995,340.00000000000006)" fill="#1f77b4" d="M4.51351666838205,0A4.51351666838205,4.51351666838205,0,1,1,-4.51351666838205,0A4.51351666838205,4.51351666838205,0,1,1,4.51351666838205,0"/><path transform="translate(107.04999999999995,340.00000000000006)" fill="#1f77b4" d="M4.51351666838205,0A4.51351666838205,4.51351666838205,0,1,1,-4.51351666838205,0A4.51351666838205,4.51351666838205,0,1,1,4.51351666838205,0"/><path transform="translate(442.29999999999995,115.00000000000004)" fill="#1f77b4" d="M4.51351666838205,0A4.51351666838205,4.51351666838205,0,1,1,-4.51351666838205,0A4.51351666838205,4.51351666838205,0,1,1,4.51351666838205,0"/><path transform="translate(419.95000000000005,25)" fill="#1f77b4" d="M4.51351666838205,0A4.51351666838205,4.51351666838205,0,1,1,-4.51351666838205,0A4.51351666838205,4.51351666838205,0,1,1,4.51351666838205,0"/><path transform="translate(352.9000000000001,137.50000000000009)" fill="#1f77b4" d="M4.51351666838205,0A4.51351666838205,4.51351666838205,0,1,1,-4.51351666838205,0A4.51351666838205,4.51351666838205,0,1,1,4.51351666838205,0"/><path transform="translate(285.8499999999999,227.50000000000006)" fill="#1f77b4" d="M4.51351666838205,0A4.51351666838205,4.51351666838205,0,1,1,-4.51351666838205,0A4.51351666838205,4.51351666838205,0,1,1,4.51351666838205,0"/><path transform="translate(419.95000000000005,160.0000000000001)" fill="#1f77b4" d="M4.51351666838205,0A4.51351666838205,4.51351666838205,0,1,1,-4.51351666838205,0A4.51351666838205,4.51351666838205,0,1,1,4.51351666838205,0"/><path transform="translate(285.8499999999999,160.0000000000001)" fill="#1f77b4" d="M4.51351666838205,0A4.51351666838205,4.51351666838205,0,1,1,-4.51351666838205,0A4.51351666838205,4.51351666838205,0,1,1,4.51351666838205,0"/><path transform="translate(352.9000000000001,250.00000000000006)" fill="#1f77b4" d="M4.51351666838205,0A4.51351666838205,4.51351666838205,0,1,1,-4.51351666838205,0A4.51351666838205,4.51351666838205,0,1,1,4.51351666838205,0"/><path transform="translate(285.8499999999999,182.50000000000006)" fill="#1f77b4" d="M4.51351666838205,0A4.51351666838205,4.51351666838205,0,1,1,-4.51351666838205,0A4.51351666838205,4.51351666838205,0,1,1,4.51351666838205,0"/><path transform="translate(174.0999999999999,205)" fill="#1f77b4" d="M4.51351666838205,0A4.51351666838205,4.51351666838205,0,1,1,-4.51351666838205,0A4.51351666838205,4.51351666838205,0,1,1,4.51351666838205,0"/><path transform="translate(285.8499999999999,272.5000000000001)" fill="#1f77b4" d="M4.51351666838205,0A4.51351666838205,4.51351666838205,0,1,1,-4.51351666838205,0A4.51351666838205,4.51351666838205,0,1,1,4.51351666838205,0"/><path transform="translate(218.79999999999995,250.00000000000006)" fill="#1f77b4" d="M4.51351666838205,0A4.51351666838205,4.51351666838205,0,1,1,-4.51351666838205,0A4.51351666838205,4.51351666838205,0,1,1,4.51351666838205,0"/><path transform="translate(263.5,340.00000000000006)" fill="#1f77b4" d="M4.51351666838205,0A4.51351666838205,4.51351666838205,0,1,1,-4.51351666838205,0A4.51351666838205,4.51351666838205,0,1,1,4.51351666838205,0"/><path transform="translate(263.5,250.00000000000006)" fill="#1f77b4" d="M4.51351666838205,0A4.51351666838205,4.51351666838205,0,1,1,-4.51351666838205,0A4.51351666838205,4.51351666838205,0,1,1,4.51351666838205,0"/><path transform="translate(308.20000000000005,227.50000000000006)" fill="#1f77b4" d="M4.51351666838205,0A4.51351666838205,4.51351666838205,0,1,1,-4.51351666838205,0A4.51351666838205,4.51351666838205,0,1,1,4.51351666838205,0"/><path transform="translate(308.20000000000005,250.00000000000006)" fill="#1f77b4" d="M4.51351666838205,0A4.51351666838205,4.51351666838205,0,1,1,-4.51351666838205,0A4.51351666838205,4.51351666838205,0,1,1,4.51351666838205,0"/><path transform="translate(196.45000000000005,295)" fill="#1f77b4" d="M4.51351666838205,0A4.51351666838205,4.51351666838205,0,1,1,-4.51351666838205,0A4.51351666838205,4.51351666838205,0,1,1,4.51351666838205,0"/><path transform="translate(218.79999999999995,317.5)" fill="#1f77b4" d="M4.51351666838205,0A4.51351666838205,4.51351666838205,0,1,1,-4.51351666838205,0A4.51351666838205,4.51351666838205,0,1,1,4.51351666838205,0"/><path transform="translate(352.9000000000001,250.00000000000006)" fill="#1f77b4" d="M4.51351666838205,0A4.51351666838205,4.51351666838205,0,1,1,-4.51351666838205,0A4.51351666838205,4.51351666838205,0,1,1,4.51351666838205,0"/><path transform="translate(308.20000000000005,92.50000000000011)" fill="#1f77b4" d="M4.51351666838205,0A4.51351666838205,4.51351666838205,0,1,1,-4.51351666838205,0A4.51351666838205,4.51351666838205,0,1,1,4.51351666838205,0"/><path transform="translate(375.25,70.00000000000003)" fill="#1f77b4" d="M4.51351666838205,0A4.51351666838205,4.51351666838205,0,1,1,-4.51351666838205,0A4.51351666838205,4.51351666838205,0,1,1,4.51351666838205,0"/><path transform="translate(241.1500000000001,317.5)" fill="#1f77b4" d="M4.51351666838205,0A4.51351666838205,4.51351666838205,0,1,1,-4.51351666838205,0A4.51351666838205,4.51351666838205,0,1,1,4.51351666838205,0"/><path transform="translate(263.5,295)" fill="#1f77b4" d="M4.51351666838205,0A4.51351666838205,4.51351666838205,0,1,1,-4.51351666838205,0A4.51351666838205,4.51351666838205,0,1,1,4.51351666838205,0"/><path transform="translate(375.25,227.50000000000006)" fill="#1f77b4" d="M4.51351666838205,0A4.51351666838205,4.51351666838205,0,1,1,-4.51351666838205,0A4.51351666838205,4.51351666838205,0,1,1,4.51351666838205,0"/><path transform="translate(241.1500000000001,205)" fill="#1f77b4" d="M4.51351666838205,0A4.51351666838205,4.51351666838205,0,1,1,-4.51351666838205,0A4.51351666838205,4.51351666838205,0,1,1,4.51351666838205,0"/><path transform="translate(129.4000000000001,340.00000000000006)" fill="#1f77b4" d="M4.51351666838205,0A4.51351666838205,4.51351666838205,0,1,1,-4.51351666838205,0A4.51351666838205,4.51351666838205,0,1,1,4.51351666838205,0"/><path transform="translate(285.8499999999999,250.00000000000006)" fill="#1f77b4" d="M4.51351666838205,0A4.51351666838205,4.51351666838205,0,1,1,-4.51351666838205,0A4.51351666838205,4.51351666838205,0,1,1,4.51351666838205,0"/><path transform="translate(263.5,227.50000000000006)" fill="#1f77b4" d="M4.51351666838205,0A4.51351666838205,4.51351666838205,0,1,1,-4.51351666838205,0A4.51351666838205,4.51351666838205,0,1,1,4.51351666838205,0"/><path transform="translate(151.75,497.50000000000006)" fill="#1f77b4" d="M4.51351666838205,0A4.51351666838205,4.51351666838205,0,1,1,-4.51351666838205,0A4.51351666838205,4.51351666838205,0,1,1,4.51351666838205,0"/><path transform="translate(129.4000000000001,295)" fill="#1f77b4" d="M4.51351666838205,0A4.51351666838205,4.51351666838205,0,1,1,-4.51351666838205,0A4.51351666838205,4.51351666838205,0,1,1,4.51351666838205,0"/><path transform="translate(263.5,227.50000000000006)" fill="#1f77b4" d="M4.51351666838205,0A4.51351666838205,4.51351666838205,0,1,1,-4.51351666838205,0A4.51351666838205,4.51351666838205,0,1,1,4.51351666838205,0"/><path transform="translate(285.8499999999999,160.0000000000001)" fill="#1f77b4" d="M4.51351666838205,0A4.51351666838205,4.51351666838205,0,1,1,-4.51351666838205,0A4.51351666838205,4.51351666838205,0,1,1,4.51351666838205,0"/><path transform="translate(218.79999999999995,340.00000000000006)" fill="#1f77b4" d="M4.51351666838205,0A4.51351666838205,4.51351666838205,0,1,1,-4.51351666838205,0A4.51351666838205,4.51351666838205,0,1,1,4.51351666838205,0"/><path transform="translate(285.8499999999999,160.0000000000001)" fill="#1f77b4" d="M4.51351666838205,0A4.51351666838205,4.51351666838205,0,1,1,-4.51351666838205,0A4.51351666838205,4.51351666838205,0,1,1,4.51351666838205,0"/><path transform="translate(174.0999999999999,295)" fill="#1f77b4" d="M4.51351666838205,0A4.51351666838205,4.51351666838205,0,1,1,-4.51351666838205,0A4.51351666838205,4.51351666838205,0,1,1,4.51351666838205,0"/><path transform="translate(330.54999999999995,182.50000000000006)" fill="#1f77b4" d="M4.51351666838205,0A4.51351666838205,4.51351666838205,0,1,1,-4.51351666838205,0A4.51351666838205,4.51351666838205,0,1,1,4.51351666838205,0"/><path transform="translate(263.5,272.5000000000001)" fill="#1f77b4" d="M4.51351666838205,0A4.51351666838205,4.51351666838205,0,1,1,-4.51351666838205,0A4.51351666838205,4.51351666838205,0,1,1,4.51351666838205,0"/><path transform="translate(710.5,295)" fill="#ff7f0e" d="M-5.366563145999495,-1.7888543819998317L-1.7888543819998317,-1.7888543819998317L-1.7888543819998317,-5.366563145999495L1.7888543819998317,-5.366563145999495L1.7888543819998317,-1.7888543819998317L5.366563145999495,-1.7888543819998317L5.366563145999495,1.7888543819998317L1.7888543819998317,1.7888543819998317L1.7888543819998317,5.366563145999495L-1.7888543819998317,5.366563145999495L-1.7888543819998317,1.7888543819998317L-5.366563145999495,1.7888543819998317Z"/><path transform="translate(576.4000000000001,295)" fill="#ff7f0e" d="M-5.366563145999495,-1.7888543819998317L-1.7888543819998317,-1.7888543819998317L-1.7888543819998317,-5.366563145999495L1.7888543819998317,-5.366563145999495L1.7888543819998317,-1.7888543819998317L5.366563145999495,-1.7888543819998317L5.366563145999495,1.7888543819998317L1.7888543819998317,1.7888543819998317L1.7888543819998317,5.366563145999495L-1.7888543819998317,5.366563145999495L-1.7888543819998317,1.7888543819998317L-5.366563145999495,1.7888543819998317Z"/><path transform="translate(688.1500000000001,317.5)" fill="#ff7f0e" d="M-5.366563145999495,-1.7888543819998317L-1.7888543819998317,-1.7888543819998317L-1.7888543819998317,-5.366563145999495L1.7888543819998317,-5.366563145999495L1.7888543819998317,-1.7888543819998317L5.366563145999495,-1.7888543819998317L5.366563145999495,1.7888543819998317L1.7888543819998317,1.7888543819998317L1.7888543819998317,5.366563145999495L-1.7888543819998317,5.366563145999495L-1.7888543819998317,1.7888543819998317L-5.366563145999495,1.7888543819998317Z"/><path transform="translate(375.25,497.50000000000006)" fill="#ff7f0e" d="M-5.366563145999495,-1.7888543819998317L-1.7888543819998317,-1.7888543819998317L-1.7888543819998317,-5.366563145999495L1.7888543819998317,-5.366563145999495L1.7888543819998317,-1.7888543819998317L5.366563145999495,-1.7888543819998317L5.366563145999495,1.7888543819998317L1.7888543819998317,1.7888543819998317L1.7888543819998317,5.366563145999495L-1.7888543819998317,5.366563145999495L-1.7888543819998317,1.7888543819998317L-5.366563145999495,1.7888543819998317Z"/><path transform="translate(598.75,385)" fill="#ff7f0e" d="M-5.366563145999495,-1.7888543819998317L-1.7888543819998317,-1.7888543819998317L-1.7888543819998317,-5.366563145999495L1.7888543819998317,-5.366563145999495L1.7888543819998317,-1.7888543819998317L5.366563145999495,-1.7888543819998317L5.366563145999495,1.7888543819998317L1.7888543819998317,1.7888543819998317L1.7888543819998317,5.366563145999495L-1.7888543819998317,5.366563145999495L-1.7888543819998317,1.7888543819998317L-5.366563145999495,1.7888543819998317Z"/><path transform="translate(419.95000000000005,385)" fill="#ff7f0e" d="M-5.366563145999495,-1.7888543819998317L-1.7888543819998317,-1.7888543819998317L-1.7888543819998317,-5.366563145999495L1.7888543819998317,-5.366563145999495L1.7888543819998317,-1.7888543819998317L5.366563145999495,-1.7888543819998317L5.366563145999495,1.7888543819998317L1.7888543819998317,1.7888543819998317L1.7888543819998317,5.366563145999495L-1.7888543819998317,5.366563145999495L-1.7888543819998317,1.7888543819998317L-5.366563145999495,1.7888543819998317Z"/><path transform="translate(554.05,272.5000000000001)" fill="#ff7f0e" d="M-5.366563145999495,-1.7888543819998317L-1.7888543819998317,-1.7888543819998317L-1.7888543819998317,-5.366563145999495L1.7888543819998317,-5.366563145999495L1.7888543819998317,-1.7888543819998317L5.366563145999495,-1.7888543819998317L5.366563145999495,1.7888543819998317L1.7888543819998317,1.7888543819998317L1.7888543819998317,5.366563145999495L-1.7888543819998317,5.366563145999495L-1.7888543819998317,1.7888543819998317L-5.366563145999495,1.7888543819998317Z"/><path transform="translate(241.1500000000001,475.00000000000006)" fill="#ff7f0e" d="M-5.366563145999495,-1.7888543819998317L-1.7888543819998317,-1.7888543819998317L-1.7888543819998317,-5.366563145999495L1.7888543819998317,-5.366563145999495L1.7888543819998317,-1.7888543819998317L5.366563145999495,-1.7888543819998317L5.366563145999495,1.7888543819998317L1.7888543819998317,1.7888543819998317L1.7888543819998317,5.366563145999495L-1.7888543819998317,5.366563145999495L-1.7888543819998317,1.7888543819998317L-5.366563145999495,1.7888543819998317Z"/><path transform="translate(621.0999999999999,362.50000000000006)" fill="#ff7f0e" d="M-5.366563145999495,-1.7888543819998317L-1.7888543819998317,-1.7888543819998317L-1.7888543819998317,-5.366563145999495L1.7888543819998317,-5.366563145999495L1.7888543819998317,-1.7888543819998317L5.366563145999495,-1.7888543819998317L5.366563145999495,1.7888543819998317L1.7888543819998317,1.7888543819998317L1.7888543819998317,5.366563145999495L-1.7888543819998317,5.366563145999495L-1.7888543819998317,1.7888543819998317L-5.366563145999495,1.7888543819998317Z"/><path transform="translate(308.20000000000005,407.5)" fill="#ff7f0e" d="M-5.366563145999495,-1.7888543819998317L-1.7888543819998317,-1.7888543819998317L-1.7888543819998317,-5.366563145999495L1.7888543819998317,-5.366563145999495L1.7888543819998317,-1.7888543819998317L5.366563145999495,-1.7888543819998317L5.366563145999495,1.7888543819998317L1.7888543819998317,1.7888543819998317L1.7888543819998317,5.366563145999495L-1.7888543819998317,5.366563145999495L-1.7888543819998317,1.7888543819998317L-5.366563145999495,1.7888543819998317Z"/><path transform="translate(263.5,565)" fill="#ff7f0e" d="M-5.366563145999495,-1.7888543819998317L-1.7888543819998317,-1.7888543819998317L-1.7888543819998317,-5.366563145999495L1.7888543819998317,-5.366563145999495L1.7888543819998317,-1.7888543819998317L5.366563145999495,-1.7888543819998317L5.366563145999495,1.7888543819998317L1.7888543819998317,1.7888543819998317L1.7888543819998317,5.366563145999495L-1.7888543819998317,5.366563145999495L-1.7888543819998317,1.7888543819998317L-5.366563145999495,1.7888543819998317Z"/><path transform="translate(464.6500000000001,340.00000000000006)" fill="#ff7f0e" d="M-5.366563145999495,-1.7888543819998317L-1.7888543819998317,-1.7888543819998317L-1.7888543819998317,-5.366563145999495L1.7888543819998317,-5.366563145999495L1.7888543819998317,-1.7888543819998317L5.366563145999495,-1.7888543819998317L5.366563145999495,1.7888543819998317L1.7888543819998317,1.7888543819998317L1.7888543819998317,5.366563145999495L-1.7888543819998317,5.366563145999495L-1.7888543819998317,1.7888543819998317L-5.366563145999495,1.7888543819998317Z"/><path transform="translate(487,520)" fill="#ff7f0e" d="M-5.366563145999495,-1.7888543819998317L-1.7888543819998317,-1.7888543819998317L-1.7888543819998317,-5.366563145999495L1.7888543819998317,-5.366563145999495L1.7888543819998317,-1.7888543819998317L5.366563145999495,-1.7888543819998317L5.366563145999495,1.7888543819998317L1.7888543819998317,1.7888543819998317L1.7888543819998317,5.366563145999495L-1.7888543819998317,5.366563145999495L-1.7888543819998317,1.7888543819998317L-5.366563145999495,1.7888543819998317Z"/><path transform="translate(509.3499999999999,362.50000000000006)" fill="#ff7f0e" d="M-5.366563145999495,-1.7888543819998317L-1.7888543819998317,-1.7888543819998317L-1.7888543819998317,-5.366563145999495L1.7888543819998317,-5.366563145999495L1.7888543819998317,-1.7888543819998317L5.366563145999495,-1.7888543819998317L5.366563145999495,1.7888543819998317L1.7888543819998317,1.7888543819998317L1.7888543819998317,5.366563145999495L-1.7888543819998317,5.366563145999495L-1.7888543819998317,1.7888543819998317L-5.366563145999495,1.7888543819998317Z"/><path transform="translate(397.5999999999999,362.50000000000006)" fill="#ff7f0e" d="M-5.366563145999495,-1.7888543819998317L-1.7888543819998317,-1.7888543819998317L-1.7888543819998317,-5.366563145999495L1.7888543819998317,-5.366563145999495L1.7888543819998317,-1.7888543819998317L5.366563145999495,-1.7888543819998317L5.366563145999495,1.7888543819998317L1.7888543819998317,1.7888543819998317L1.7888543819998317,5.366563145999495L-1.7888543819998317,5.366563145999495L-1.7888543819998317,1.7888543819998317L-5.366563145999495,1.7888543819998317Z"/><path transform="translate(643.45,317.5)" fill="#ff7f0e" d="M-5.366563145999495,-1.7888543819998317L-1.7888543819998317,-1.7888543819998317L-1.7888543819998317,-5.366563145999495L1.7888543819998317,-5.366563145999495L1.7888543819998317,-1.7888543819998317L5.366563145999495,-1.7888543819998317L5.366563145999495,1.7888543819998317L1.7888543819998317,1.7888543819998317L1.7888543819998317,5.366563145999495L-1.7888543819998317,5.366563145999495L-1.7888543819998317,1.7888543819998317L-5.366563145999495,1.7888543819998317Z"/><path transform="translate(397.5999999999999,340.00000000000006)" fill="#ff7f0e" d="M-5.366563145999495,-1.7888543819998317L-1.7888543819998317,-1.7888543819998317L-1.7888543819998317,-5.366563145999495L1.7888543819998317,-5.366563145999495L1.7888543819998317,-1.7888543819998317L5.366563145999495,-1.7888543819998317L5.366563145999495,1.7888543819998317L1.7888543819998317,1.7888543819998317L1.7888543819998317,5.366563145999495L-1.7888543819998317,5.366563145999495L-1.7888543819998317,1.7888543819998317L-5.366563145999495,1.7888543819998317Z"/><path transform="translate(442.29999999999995,407.5)" fill="#ff7f0e" d="M-5.366563145999495,-1.7888543819998317L-1.7888543819998317,-1.7888543819998317L-1.7888543819998317,-5.366563145999495L1.7888543819998317,-5.366563145999495L1.7888543819998317,-1.7888543819998317L5.366563145999495,-1.7888543819998317L5.366563145999495,1.7888543819998317L1.7888543819998317,1.7888543819998317L1.7888543819998317,5.366563145999495L-1.7888543819998317,5.366563145999495L-1.7888543819998317,1.7888543819998317L-5.366563145999495,1.7888543819998317Z"/><path transform="translate(531.7,520)" fill="#ff7f0e" d="M-5.366563145999495,-1.7888543819998317L-1.7888543819998317,-1.7888543819998317L-1.7888543819998317,-5.366563145999495L1.7888543819998317,-5.366563145999495L1.7888543819998317,-1.7888543819998317L5.366563145999495,-1.7888543819998317L5.366563145999495,1.7888543819998317L1.7888543819998317,1.7888543819998317L1.7888543819998317,5.366563145999495L-1.7888543819998317,5.366563145999495L-1.7888543819998317,1.7888543819998317L-5.366563145999495,1.7888543819998317Z"/><path transform="translate(397.5999999999999,452.5)" fill="#ff7f0e" d="M-5.366563145999495,-1.7888543819998317L-1.7888543819998317,-1.7888543819998317L-1.7888543819998317,-5.366563145999495L1.7888543819998317,-5.366563145999495L1.7888543819998317,-1.7888543819998317L5.366563145999495,-1.7888543819998317L5.366563145999495,1.7888543819998317L1.7888543819998317,1.7888543819998317L1.7888543819998317,5.366563145999495L-1.7888543819998317,5.366563145999495L-1.7888543819998317,1.7888543819998317L-5.366563145999495,1.7888543819998317Z"/><path transform="translate(464.6500000000001,295)" fill="#ff7f0e" d="M-5.366563145999495,-1.7888543819998317L-1.7888543819998317,-1.7888543819998317L-1.7888543819998317,-5.366563145999495L1.7888543819998317,-5.366563145999495L1.7888543819998317,-1.7888543819998317L5.366563145999495,-1.7888543819998317L5.366563145999495,1.7888543819998317L1.7888543819998317,1.7888543819998317L1.7888543819998317,5.366563145999495L-1.7888543819998317,5.366563145999495L-1.7888543819998317,1.7888543819998317L-5.366563145999495,1.7888543819998317Z"/><path transform="translate(509.3499999999999,385)" fill="#ff7f0e" d="M-5.366563145999495,-1.7888543819998317L-1.7888543819998317,-1.7888543819998317L-1.7888543819998317,-5.366563145999495L1.7888543819998317,-5.366563145999495L1.7888543819998317,-1.7888543819998317L5.366563145999495,-1.7888543819998317L5.366563145999495,1.7888543819998317L1.7888543819998317,1.7888543819998317L1.7888543819998317,5.366563145999495L-1.7888543819998317,5.366563145999495L-1.7888543819998317,1.7888543819998317L-5.366563145999495,1.7888543819998317Z"/><path transform="translate(554.05,452.5)" fill="#ff7f0e" d="M-5.366563145999495,-1.7888543819998317L-1.7888543819998317,-1.7888543819998317L-1.7888543819998317,-5.366563145999495L1.7888543819998317,-5.366563145999495L1.7888543819998317,-1.7888543819998317L5.366563145999495,-1.7888543819998317L5.366563145999495,1.7888543819998317L1.7888543819998317,1.7888543819998317L1.7888543819998317,5.366563145999495L-1.7888543819998317,5.366563145999495L-1.7888543819998317,1.7888543819998317L-5.366563145999495,1.7888543819998317Z"/><path transform="translate(509.3499999999999,385)" fill="#ff7f0e" d="M-5.366563145999495,-1.7888543819998317L-1.7888543819998317,-1.7888543819998317L-1.7888543819998317,-5.366563145999495L1.7888543819998317,-5.366563145999495L1.7888543819998317,-1.7888543819998317L5.366563145999495,-1.7888543819998317L5.366563145999495,1.7888543819998317L1.7888543819998317,1.7888543819998317L1.7888543819998317,5.366563145999495L-1.7888543819998317,5.366563145999495L-1.7888543819998317,1.7888543819998317L-5.366563145999495,1.7888543819998317Z"/><path transform="translate(576.4000000000001,362.50000000000006)" fill="#ff7f0e" d="M-5.366563145999495,-1.7888543819998317L-1.7888543819998317,-1.7888543819998317L-1.7888543819998317,-5.366563145999495L1.7888543819998317,-5.366563145999495L1.7888543819998317,-1.7888543819998317L5.366563145999495,-1.7888543819998317L5.366563145999495,1.7888543819998317L1.7888543819998317,1.7888543819998317L1.7888543819998317,5.366563145999495L-1.7888543819998317,5.366563145999495L-1.7888543819998317,1.7888543819998317L-5.366563145999495,1.7888543819998317Z"/><path transform="translate(621.0999999999999,340.00000000000006)" fill="#ff7f0e" d="M-5.366563145999495,-1.7888543819998317L-1.7888543819998317,-1.7888543819998317L-1.7888543819998317,-5.366563145999495L1.7888543819998317,-5.366563145999495L1.7888543819998317,-1.7888543819998317L5.366563145999495,-1.7888543819998317L5.366563145999495,1.7888543819998317L1.7888543819998317,1.7888543819998317L1.7888543819998317,5.366563145999495L-1.7888543819998317,5.366563145999495L-1.7888543819998317,1.7888543819998317L-5.366563145999495,1.7888543819998317Z"/><path transform="translate(665.8,385)" fill="#ff7f0e" d="M-5.366563145999495,-1.7888543819998317L-1.7888543819998317,-1.7888543819998317L-1.7888543819998317,-5.366563145999495L1.7888543819998317,-5.366563145999495L1.7888543819998317,-1.7888543819998317L5.366563145999495,-1.7888543819998317L5.366563145999495,1.7888543819998317L1.7888543819998317,1.7888543819998317L1.7888543819998317,5.366563145999495L-1.7888543819998317,5.366563145999495L-1.7888543819998317,1.7888543819998317L-5.366563145999495,1.7888543819998317Z"/><path transform="translate(643.45,340.00000000000006)" fill="#ff7f0e" d="M-5.366563145999495,-1.7888543819998317L-1.7888543819998317,-1.7888543819998317L-1.7888543819998317,-5.366563145999495L1.7888543819998317,-5.366563145999495L1.7888543819998317,-1.7888543819998317L5.366563145999495,-1.7888543819998317L5.366563145999495,1.7888543819998317L1.7888543819998317,1.7888543819998317L1.7888543819998317,5.366563145999495L-1.7888543819998317,5.366563145999495L-1.7888543819998317,1.7888543819998317L-5.366563145999495,1.7888543819998317Z"/><path transform="translate(487,362.50000000000006)" fill="#ff7f0e" d="M-5.366563145999495,-1.7888543819998317L-1.7888543819998317,-1.7888543819998317L-1.7888543819998317,-5.366563145999495L1.7888543819998317,-5.366563145999495L1.7888543819998317,-1.7888543819998317L5.366563145999495,-1.7888543819998317L5.366563145999495,1.7888543819998317L1.7888543819998317,1.7888543819998317L1.7888543819998317,5.366563145999495L-1.7888543819998317,5.366563145999495L-1.7888543819998317,1.7888543819998317L-5.366563145999495,1.7888543819998317Z"/><path transform="translate(419.95000000000005,430)" fill="#ff7f0e" d="M-5.366563145999495,-1.7888543819998317L-1.7888543819998317,-1.7888543819998317L-1.7888543819998317,-5.366563145999495L1.7888543819998317,-5.366563145999495L1.7888543819998317,-1.7888543819998317L5.366563145999495,-1.7888543819998317L5.366563145999495,1.7888543819998317L1.7888543819998317,1.7888543819998317L1.7888543819998317,5.366563145999495L-1.7888543819998317,5.366563145999495L-1.7888543819998317,1.7888543819998317L-5.366563145999495,1.7888543819998317Z"/><path transform="translate(375.25,475.00000000000006)" fill="#ff7f0e" d="M-5.366563145999495,-1.7888543819998317L-1.7888543819998317,-1.7888543819998317L-1.7888543819998317,-5.366563145999495L1.7888543819998317,-5.366563145999495L1.7888543819998317,-1.7888543819998317L5.366563145999495,-1.7888543819998317L5.366563145999495,1.7888543819998317L1.7888543819998317,1.7888543819998317L1.7888543819998317,5.366563145999495L-1.7888543819998317,5.366563145999495L-1.7888543819998317,1.7888543819998317L-5.366563145999495,1.7888543819998317Z"/><path transform="translate(375.25,475.00000000000006)" fill="#ff7f0e" d="M-5.366563145999495,-1.7888543819998317L-1.7888543819998317,-1.7888543819998317L-1.7888543819998317,-5.366563145999495L1.7888543819998317,-5.366563145999495L1.7888543819998317,-1.7888543819998317L5.366563145999495,-1.7888543819998317L5.366563145999495,1.7888543819998317L1.7888543819998317,1.7888543819998317L1.7888543819998317,5.366563145999495L-1.7888543819998317,5.366563145999495L-1.7888543819998317,1.7888543819998317L-5.366563145999495,1.7888543819998317Z"/><path transform="translate(442.29999999999995,407.5)" fill="#ff7f0e" d="M-5.366563145999495,-1.7888543819998317L-1.7888543819998317,-1.7888543819998317L-1.7888543819998317,-5.366563145999495L1.7888543819998317,-5.366563145999495L1.7888543819998317,-1.7888543819998317L5.366563145999495,-1.7888543819998317L5.366563145999495,1.7888543819998317L1.7888543819998317,1.7888543819998317L1.7888543819998317,5.366563145999495L-1.7888543819998317,5.366563145999495L-1.7888543819998317,1.7888543819998317L-5.366563145999495,1.7888543819998317Z"/><path transform="translate(487,407.5)" fill="#ff7f0e" d="M-5.366563145999495,-1.7888543819998317L-1.7888543819998317,-1.7888543819998317L-1.7888543819998317,-5.366563145999495L1.7888543819998317,-5.366563145999495L1.7888543819998317,-1.7888543819998317L5.366563145999495,-1.7888543819998317L5.366563145999495,1.7888543819998317L1.7888543819998317,1.7888543819998317L1.7888543819998317,5.366563145999495L-1.7888543819998317,5.366563145999495L-1.7888543819998317,1.7888543819998317L-5.366563145999495,1.7888543819998317Z"/><path transform="translate(352.9000000000001,340.00000000000006)" fill="#ff7f0e" d="M-5.366563145999495,-1.7888543819998317L-1.7888543819998317,-1.7888543819998317L-1.7888543819998317,-5.366563145999495L1.7888543819998317,-5.366563145999495L1.7888543819998317,-1.7888543819998317L5.366563145999495,-1.7888543819998317L5.366563145999495,1.7888543819998317L1.7888543819998317,1.7888543819998317L1.7888543819998317,5.366563145999495L-1.7888543819998317,5.366563145999495L-1.7888543819998317,1.7888543819998317L-5.366563145999495,1.7888543819998317Z"/><path transform="translate(487,250.00000000000006)" fill="#ff7f0e" d="M-5.366563145999495,-1.7888543819998317L-1.7888543819998317,-1.7888543819998317L-1.7888543819998317,-5.366563145999495L1.7888543819998317,-5.366563145999495L1.7888543819998317,-1.7888543819998317L5.366563145999495,-1.7888543819998317L5.366563145999495,1.7888543819998317L1.7888543819998317,1.7888543819998317L1.7888543819998317,5.366563145999495L-1.7888543819998317,5.366563145999495L-1.7888543819998317,1.7888543819998317L-5.366563145999495,1.7888543819998317Z"/><path transform="translate(643.45,317.5)" fill="#ff7f0e" d="M-5.366563145999495,-1.7888543819998317L-1.7888543819998317,-1.7888543819998317L-1.7888543819998317,-5.366563145999495L1.7888543819998317,-5.366563145999495L1.7888543819998317,-1.7888543819998317L5.366563145999495,-1.7888543819998317L5.366563145999495,1.7888543819998317L1.7888543819998317,1.7888543819998317L1.7888543819998317,5.366563145999495L-1.7888543819998317,5.366563145999495L-1.7888543819998317,1.7888543819998317L-5.366563145999495,1.7888543819998317Z"/><path transform="translate(554.05,497.50000000000006)" fill="#ff7f0e" d="M-5.366563145999495,-1.7888543819998317L-1.7888543819998317,-1.7888543819998317L-1.7888543819998317,-5.366563145999495L1.7888543819998317,-5.366563145999495L1.7888543819998317,-1.7888543819998317L5.366563145999495,-1.7888543819998317L5.366563145999495,1.7888543819998317L1.7888543819998317,1.7888543819998317L1.7888543819998317,5.366563145999495L-1.7888543819998317,5.366563145999495L-1.7888543819998317,1.7888543819998317L-5.366563145999495,1.7888543819998317Z"/><path transform="translate(397.5999999999999,340.00000000000006)" fill="#ff7f0e" d="M-5.366563145999495,-1.7888543819998317L-1.7888543819998317,-1.7888543819998317L-1.7888543819998317,-5.366563145999495L1.7888543819998317,-5.366563145999495L1.7888543819998317,-1.7888543819998317L5.366563145999495,-1.7888543819998317L5.366563145999495,1.7888543819998317L1.7888543819998317,1.7888543819998317L1.7888543819998317,5.366563145999495L-1.7888543819998317,5.366563145999495L-1.7888543819998317,1.7888543819998317L-5.366563145999495,1.7888543819998317Z"/><path transform="translate(375.25,452.5)" fill="#ff7f0e" d="M-5.366563145999495,-1.7888543819998317L-1.7888543819998317,-1.7888543819998317L-1.7888543819998317,-5.366563145999495L1.7888543819998317,-5.366563145999495L1.7888543819998317,-1.7888543819998317L5.366563145999495,-1.7888543819998317L5.366563145999495,1.7888543819998317L1.7888543819998317,1.7888543819998317L1.7888543819998317,5.366563145999495L-1.7888543819998317,5.366563145999495L-1.7888543819998317,1.7888543819998317L-5.366563145999495,1.7888543819998317Z"/><path transform="translate(375.25,430)" fill="#ff7f0e" d="M-5.366563145999495,-1.7888543819998317L-1.7888543819998317,-1.7888543819998317L-1.7888543819998317,-5.366563145999495L1.7888543819998317,-5.366563145999495L1.7888543819998317,-1.7888543819998317L5.366563145999495,-1.7888543819998317L5.366563145999495,1.7888543819998317L1.7888543819998317,1.7888543819998317L1.7888543819998317,5.366563145999495L-1.7888543819998317,5.366563145999495L-1.7888543819998317,1.7888543819998317L-5.366563145999495,1.7888543819998317Z"/><path transform="translate(509.3499999999999,340.00000000000006)" fill="#ff7f0e" d="M-5.366563145999495,-1.7888543819998317L-1.7888543819998317,-1.7888543819998317L-1.7888543819998317,-5.366563145999495L1.7888543819998317,-5.366563145999495L1.7888543819998317,-1.7888543819998317L5.366563145999495,-1.7888543819998317L5.366563145999495,1.7888543819998317L1.7888543819998317,1.7888543819998317L1.7888543819998317,5.366563145999495L-1.7888543819998317,5.366563145999495L-1.7888543819998317,1.7888543819998317L-5.366563145999495,1.7888543819998317Z"/><path transform="translate(442.29999999999995,430)" fill="#ff7f0e" d="M-5.366563145999495,-1.7888543819998317L-1.7888543819998317,-1.7888543819998317L-1.7888543819998317,-5.366563145999495L1.7888543819998317,-5.366563145999495L1.7888543819998317,-1.7888543819998317L5.366563145999495,-1.7888543819998317L5.366563145999495,1.7888543819998317L1.7888543819998317,1.7888543819998317L1.7888543819998317,5.366563145999495L-1.7888543819998317,5.366563145999495L-1.7888543819998317,1.7888543819998317L-5.366563145999495,1.7888543819998317Z"/><path transform="translate(263.5,497.50000000000006)" fill="#ff7f0e" d="M-5.366563145999495,-1.7888543819998317L-1.7888543819998317,-1.7888543819998317L-1.7888543819998317,-5.366563145999495L1.7888543819998317,-5.366563145999495L1.7888543819998317,-1.7888543819998317L5.366563145999495,-1.7888543819998317L5.366563145999495,1.7888543819998317L1.7888543819998317,1.7888543819998317L1.7888543819998317,5.366563145999495L-1.7888543819998317,5.366563145999495L-1.7888543819998317,1.7888543819998317L-5.366563145999495,1.7888543819998317Z"/><path transform="translate(397.5999999999999,407.5)" fill="#ff7f0e" d="M-5.366563145999495,-1.7888543819998317L-1.7888543819998317,-1.7888543819998317L-1.7888543819998317,-5.366563145999495L1.7888543819998317,-5.366563145999495L1.7888543819998317,-1.7888543819998317L5.366563145999495,-1.7888543819998317L5.366563145999495,1.7888543819998317L1.7888543819998317,1.7888543819998317L1.7888543819998317,5.366563145999495L-1.7888543819998317,5.366563145999495L-1.7888543819998317,1.7888543819998317L-5.366563145999495,1.7888543819998317Z"/><path transform="translate(419.95000000000005,340.00000000000006)" fill="#ff7f0e" d="M-5.366563145999495,-1.7888543819998317L-1.7888543819998317,-1.7888543819998317L-1.7888543819998317,-5.366563145999495L1.7888543819998317,-5.366563145999495L1.7888543819998317,-1.7888543819998317L5.366563145999495,-1.7888543819998317L5.366563145999495,1.7888543819998317L1.7888543819998317,1.7888543819998317L1.7888543819998317,5.366563145999495L-1.7888543819998317,5.366563145999495L-1.7888543819998317,1.7888543819998317L-5.366563145999495,1.7888543819998317Z"/><path transform="translate(419.95000000000005,362.50000000000006)" fill="#ff7f0e" d="M-5.366563145999495,-1.7888543819998317L-1.7888543819998317,-1.7888543819998317L-1.7888543819998317,-5.366563145999495L1.7888543819998317,-5.366563145999495L1.7888543819998317,-1.7888543819998317L5.366563145999495,-1.7888543819998317L5.366563145999495,1.7888543819998317L1.7888543819998317,1.7888543819998317L1.7888543819998317,5.366563145999495L-1.7888543819998317,5.366563145999495L-1.7888543819998317,1.7888543819998317L-5.366563145999495,1.7888543819998317Z"/><path transform="translate(531.7,362.50000000000006)" fill="#ff7f0e" d="M-5.366563145999495,-1.7888543819998317L-1.7888543819998317,-1.7888543819998317L-1.7888543819998317,-5.366563145999495L1.7888543819998317,-5.366563145999495L1.7888543819998317,-1.7888543819998317L5.366563145999495,-1.7888543819998317L5.366563145999495,1.7888543819998317L1.7888543819998317,1.7888543819998317L1.7888543819998317,5.366563145999495L-1.7888543819998317,5.366563145999495L-1.7888543819998317,1.7888543819998317L-5.366563145999495,1.7888543819998317Z"/><path transform="translate(285.8499999999999,452.5)" fill="#ff7f0e" d="M-5.366563145999495,-1.7888543819998317L-1.7888543819998317,-1.7888543819998317L-1.7888543819998317,-5.366563145999495L1.7888543819998317,-5.366563145999495L1.7888543819998317,-1.7888543819998317L5.366563145999495,-1.7888543819998317L5.366563145999495,1.7888543819998317L1.7888543819998317,1.7888543819998317L1.7888543819998317,5.366563145999495L-1.7888543819998317,5.366563145999495L-1.7888543819998317,1.7888543819998317L-5.366563145999495,1.7888543819998317Z"/><path transform="translate(419.95000000000005,385)" fill="#ff7f0e" d="M-5.366563145999495,-1.7888543819998317L-1.7888543819998317,-1.7888543819998317L-1.7888543819998317,-5.366563145999495L1.7888543819998317,-5.366563145999495L1.7888543819998317,-1.7888543819998317L5.366563145999495,-1.7888543819998317L5.366563145999495,1.7888543819998317L1.7888543819998317,1.7888543819998317L1.7888543819998317,5.366563145999495L-1.7888543819998317,5.366563145999495L-1.7888543819998317,1.7888543819998317L-5.366563145999495,1.7888543819998317Z"/><path transform="translate(554.05,272.5000000000001)" fill="#2ca02c" d="M0,-7.444838872816797L4.298279727294168,0L0,7.444838872816797L-4.298279727294168,0Z"/><path transform="translate(442.29999999999995,407.5)" fill="#2ca02c" d="M0,-7.444838872816797L4.298279727294168,0L0,7.444838872816797L-4.298279727294168,0Z"/><path transform="translate(732.8499999999999,340.00000000000006)" fill="#2ca02c" d="M0,-7.444838872816797L4.298279727294168,0L0,7.444838872816797L-4.298279727294168,0Z"/><path transform="translate(554.05,362.50000000000006)" fill="#2ca02c" d="M0,-7.444838872816797L4.298279727294168,0L0,7.444838872816797L-4.298279727294168,0Z"/><path transform="translate(598.75,340.00000000000006)" fill="#2ca02c" d="M0,-7.444838872816797L4.298279727294168,0L0,7.444838872816797L-4.298279727294168,0Z"/><path transform="translate(844.5999999999999,340.00000000000006)" fill="#2ca02c" d="M0,-7.444838872816797L4.298279727294168,0L0,7.444838872816797L-4.298279727294168,0Z"/><path transform="translate(241.1500000000001,452.5)" fill="#2ca02c" d="M0,-7.444838872816797L4.298279727294168,0L0,7.444838872816797L-4.298279727294168,0Z"/><path transform="translate(777.55,362.50000000000006)" fill="#2ca02c" d="M0,-7.444838872816797L4.298279727294168,0L0,7.444838872816797L-4.298279727294168,0Z"/><path transform="translate(643.45,452.5)" fill="#2ca02c" d="M0,-7.444838872816797L4.298279727294168,0L0,7.444838872816797L-4.298279727294168,0Z"/><path transform="translate(755.2,205)" fill="#2ca02c" d="M0,-7.444838872816797L4.298279727294168,0L0,7.444838872816797L-4.298279727294168,0Z"/><path transform="translate(598.75,295)" fill="#2ca02c" d="M0,-7.444838872816797L4.298279727294168,0L0,7.444838872816797L-4.298279727294168,0Z"/><path transform="translate(576.4000000000001,407.5)" fill="#2ca02c" d="M0,-7.444838872816797L4.298279727294168,0L0,7.444838872816797L-4.298279727294168,0Z"/><path transform="translate(665.8,340.00000000000006)" fill="#2ca02c" d="M0,-7.444838872816797L4.298279727294168,0L0,7.444838872816797L-4.298279727294168,0Z"/><path transform="translate(419.95000000000005,452.5)" fill="#2ca02c" d="M0,-7.444838872816797L4.298279727294168,0L0,7.444838872816797L-4.298279727294168,0Z"/><path transform="translate(442.29999999999995,385)" fill="#2ca02c" d="M0,-7.444838872816797L4.298279727294168,0L0,7.444838872816797L-4.298279727294168,0Z"/><path transform="translate(576.4000000000001,295)" fill="#2ca02c" d="M0,-7.444838872816797L4.298279727294168,0L0,7.444838872816797L-4.298279727294168,0Z"/><path transform="translate(598.75,340.00000000000006)" fill="#2ca02c" d="M0,-7.444838872816797L4.298279727294168,0L0,7.444838872816797L-4.298279727294168,0Z"/><path transform="translate(866.95,160.0000000000001)" fill="#2ca02c" d="M0,-7.444838872816797L4.298279727294168,0L0,7.444838872816797L-4.298279727294168,0Z"/><path transform="translate(866.95,430)" fill="#2ca02c" d="M0,-7.444838872816797L4.298279727294168,0L0,7.444838872816797L-4.298279727294168,0Z"/><path transform="translate(487,520)" fill="#2ca02c" d="M0,-7.444838872816797L4.298279727294168,0L0,7.444838872816797L-4.298279727294168,0Z"/><path transform="translate(688.1500000000001,295)" fill="#2ca02c" d="M0,-7.444838872816797L4.298279727294168,0L0,7.444838872816797L-4.298279727294168,0Z"/><path transform="translate(397.5999999999999,385)" fill="#2ca02c" d="M0,-7.444838872816797L4.298279727294168,0L0,7.444838872816797L-4.298279727294168,0Z"/><path transform="translate(866.95,385)" fill="#2ca02c" d="M0,-7.444838872816797L4.298279727294168,0L0,7.444838872816797L-4.298279727294168,0Z"/><path transform="translate(554.05,407.5)" fill="#2ca02c" d="M0,-7.444838872816797L4.298279727294168,0L0,7.444838872816797L-4.298279727294168,0Z"/><path transform="translate(643.45,272.5000000000001)" fill="#2ca02c" d="M0,-7.444838872816797L4.298279727294168,0L0,7.444838872816797L-4.298279727294168,0Z"/><path transform="translate(755.2,295)" fill="#2ca02c" d="M0,-7.444838872816797L4.298279727294168,0L0,7.444838872816797L-4.298279727294168,0Z"/><path transform="translate(531.7,385)" fill="#2ca02c" d="M0,-7.444838872816797L4.298279727294168,0L0,7.444838872816797L-4.298279727294168,0Z"/><path transform="translate(509.3499999999999,340.00000000000006)" fill="#2ca02c" d="M0,-7.444838872816797L4.298279727294168,0L0,7.444838872816797L-4.298279727294168,0Z"/><path transform="translate(576.4000000000001,385)" fill="#2ca02c" d="M0,-7.444838872816797L4.298279727294168,0L0,7.444838872816797L-4.298279727294168,0Z"/><path transform="translate(755.2,340.00000000000006)" fill="#2ca02c" d="M0,-7.444838872816797L4.298279727294168,0L0,7.444838872816797L-4.298279727294168,0Z"/><path transform="translate(799.9000000000001,385)" fill="#2ca02c" d="M0,-7.444838872816797L4.298279727294168,0L0,7.444838872816797L-4.298279727294168,0Z"/><path transform="translate(911.6500000000001,160.0000000000001)" fill="#2ca02c" d="M0,-7.444838872816797L4.298279727294168,0L0,7.444838872816797L-4.298279727294168,0Z"/><path transform="translate(576.4000000000001,385)" fill="#2ca02c" d="M0,-7.444838872816797L4.298279727294168,0L0,7.444838872816797L-4.298279727294168,0Z"/><path transform="translate(554.05,385)" fill="#2ca02c" d="M0,-7.444838872816797L4.298279727294168,0L0,7.444838872816797L-4.298279727294168,0Z"/><path transform="translate(509.3499999999999,430)" fill="#2ca02c" d="M0,-7.444838872816797L4.298279727294168,0L0,7.444838872816797L-4.298279727294168,0Z"/><path transform="translate(866.95,340.00000000000006)" fill="#2ca02c" d="M0,-7.444838872816797L4.298279727294168,0L0,7.444838872816797L-4.298279727294168,0Z"/><path transform="translate(554.05,250.00000000000006)" fill="#2ca02c" d="M0,-7.444838872816797L4.298279727294168,0L0,7.444838872816797L-4.298279727294168,0Z"/><path transform="translate(576.4000000000001,317.5)" fill="#2ca02c" d="M0,-7.444838872816797L4.298279727294168,0L0,7.444838872816797L-4.298279727294168,0Z"/><path transform="translate(487,340.00000000000006)" fill="#2ca02c" d="M0,-7.444838872816797L4.298279727294168,0L0,7.444838872816797L-4.298279727294168,0Z"/><path transform="translate(688.1500000000001,317.5)" fill="#2ca02c" d="M0,-7.444838872816797L4.298279727294168,0L0,7.444838872816797L-4.298279727294168,0Z"/><path transform="translate(643.45,317.5)" fill="#2ca02c" d="M0,-7.444838872816797L4.298279727294168,0L0,7.444838872816797L-4.298279727294168,0Z"/><path transform="translate(688.1500000000001,317.5)" fill="#2ca02c" d="M0,-7.444838872816797L4.298279727294168,0L0,7.444838872816797L-4.298279727294168,0Z"/><path transform="translate(442.29999999999995,407.5)" fill="#2ca02c" d="M0,-7.444838872816797L4.298279727294168,0L0,7.444838872816797L-4.298279727294168,0Z"/><path transform="translate(665.8,295)" fill="#2ca02c" d="M0,-7.444838872816797L4.298279727294168,0L0,7.444838872816797L-4.298279727294168,0Z"/><path transform="translate(643.45,272.5000000000001)" fill="#2ca02c" d="M0,-7.444838872816797L4.298279727294168,0L0,7.444838872816797L-4.298279727294168,0Z"/><path transform="translate(643.45,340.00000000000006)" fill="#2ca02c" d="M0,-7.444838872816797L4.298279727294168,0L0,7.444838872816797L-4.298279727294168,0Z"/><path transform="translate(554.05,452.5)" fill="#2ca02c" d="M0,-7.444838872816797L4.298279727294168,0L0,7.444838872816797L-4.298279727294168,0Z"/><path transform="translate(598.75,340.00000000000006)" fill="#2ca02c" d="M0,-7.444838872816797L4.298279727294168,0L0,7.444838872816797L-4.298279727294168,0Z"/><path transform="translate(531.7,250.00000000000006)" fill="#2ca02c" d="M0,-7.444838872816797L4.298279727294168,0L0,7.444838872816797L-4.298279727294168,0Z"/><path transform="translate(464.6500000000001,340.00000000000006)" fill="#2ca02c" d="M0,-7.444838872816797L4.298279727294168,0L0,7.444838872816797L-4.298279727294168,0Z"/></g></svg>