<svg xmlns="http://www.w3.org/2000/svg" xmlns:xlink="http://www.w3.org/1999/xlink" xml:space="preserve" version="1.1" style="shape-rendering:geometricPrecision;text-rendering:geometricPrecision;image-rendering:optimizeQuality;" viewBox="0 0 846.66 1058.325" x="0px" y="0px" fill-rule="evenodd" clip-rule="evenodd"><defs><style type="text/css">
   
    .fil0 {fill:black;fill-rule:nonzero}
   
  </style></defs><g><path class="fil0" d="M407.94 168.3l0 70.39 45.83 26.47 60.95 -35.2 60.98 35.18 60.95 -35.2 76.11 43.93c0,29.23 0,58.45 0,87.68l-60.96 35.16 0 53.12 60.98 35.21 0 87.73 -60.98 35.2 0 70.39 -76.1 43.93 -60.96 -35.22 -60.97 35.22 -60.94 -35.2 -60.92 35.19 -60.98 -35.22 -60.97 35.2 -76.07 -43.9c0,-29.23 0,-58.44 0,-87.68l60.97 -35.2 0 -53.13 -60.97 -35.18 0 -87.68 60.95 -35.2 0 -70.4 60.98 -35.2 0 -70.42 76.02 -43.9 76.1 43.93zm121.93 439.67l0 53.08 45.9 26.51 45.84 -26.47 0 -53.15 -45.84 -26.47 -45.9 26.5zm-15.09 -26.04l45.87 -26.5 0 -53.1 -45.84 -26.46 -45.89 26.5 0 53.08 45.86 26.48zm-15.1 26.04l-45.88 -26.48 -45.86 26.48 0 53.08 45.9 26.51 45.84 -26.47 0 -53.12zm-106.83 -26.04l45.87 -26.5 0 -53.04 -45.86 -26.49 -45.87 26.49 0 53.06 45.86 26.48zm-61 -0.46l-45.84 26.47 0 53.13 45.84 26.47 45.9 -26.51 0 -53.06 -45.9 -26.5zm-60.92 0.48l45.86 -26.47 0 -53.11 -45.84 -26.49 -45.89 26.51 0 53.06 45.87 26.5zm-15.11 26.02l-45.9 -26.5 -45.84 26.47 0 53.13 45.88 26.49 45.86 -26.49 0 -53.1zm76.02 -131.62l45.91 -26.51 0 -53.06 -45.88 -26.48 -45.86 26.48 0 53.12 45.83 26.45zm121.96 -0.02l45.88 -26.49 0 -53.06 -45.9 -26.5 -45.84 26.47 0 53.09 45.86 26.49zm76.07 -26.45l45.86 26.47 45.88 -26.51 0 -53.07 -45.9 -26.51 -45.84 26.47 0 53.15zm106.85 26l-45.87 26.49 0 53.1 45.84 26.46 45.89 -26.5 0 -53.06 -45.86 -26.49zm-45.89 -184.72l0 53.06 45.89 26.51 45.85 -26.47 0 -53.13 -45.85 -26.47 -45.89 26.5zm-152.12 53.13l0 -53.13 -45.86 -26.48 -45.88 26.48 0 53.08 45.89 26.5 45.85 -26.45zm76.08 26.45l16.26 -9.39 29.59 -17.07 0 -53.14 -45.85 -26.46 -45.89 26.5 0 53.06 45.89 26.5zm-289.75 -26.5l45.88 26.5 45.85 -26.48 0 -53.08 -45.87 -26.49 -45.86 26.47 0 53.08zm-15.12 132.12l45.9 -26.5 0 -53.08 -45.9 -26.5 -45.84 26.47 0 53.15 45.84 26.46zm167.83 -290.8l-45.84 -26.47 -45.9 26.5 0 53.06 45.9 26.51 25.86 -14.94 19.98 -11.53 0 -53.13z"/></g></svg>