<svg viewBox="0,0,954,500" xmlns="http://www.w3.org/2000/svg" xmlns:xlink="http://www.w3.org/1999/xlink"><g transform="translate(0,470)" fill="none" font-size="10" font-family="sans-serif" text-anchor="middle"><path class="domain" stroke="currentColor" d="M40.5,0.5H924.5"/><g class="tick" opacity="1" transform="translate(73.74032697547685,0)"><line stroke="currentColor" y2="6"/><text fill="currentColor" y="9" dy="0.71em">July</text></g><g class="tick" opacity="1" transform="translate(118.06076294277929,0)"><line stroke="currentColor" y2="6"/><text fill="currentColor" y="9" dy="0.71em">October</text></g><g class="tick" opacity="1" transform="translate(162.38119891008174,0)"><line stroke="currentColor" y2="6"/><text fill="currentColor" y="9" dy="0.71em">2008</text></g><g class="tick" opacity="1" transform="translate(206.2198910081744,0)"><line stroke="currentColor" y2="6"/><text fill="currentColor" y="9" dy="0.71em">April</text></g><g class="tick" opacity="1" transform="translate(250.058583106267,0)"><line stroke="currentColor" y2="6"/><text fill="currentColor" y="9" dy="0.71em">July</text></g><g class="tick" opacity="1" transform="translate(294.37901907356945,0)"><line stroke="currentColor" y2="6"/><text fill="currentColor" y="9" dy="0.71em">October</text></g><g class="tick" opacity="1" transform="translate(338.6994550408719,0)"><line stroke="currentColor" y2="6"/><text fill="currentColor" y="9" dy="0.71em">2009</text></g><g class="tick" opacity="1" transform="translate(382.05640326975475,0)"><line stroke="currentColor" y2="6"/><text fill="currentColor" y="9" dy="0.71em">April</text></g><g class="tick" opacity="1" transform="translate(425.89509536784743,0)"><line stroke="currentColor" y2="6"/><text fill="currentColor" y="9" dy="0.71em">July</text></g><g class="tick" opacity="1" transform="translate(470.2155313351499,0)"><line stroke="currentColor" y2="6"/><text fill="currentColor" y="9" dy="0.71em">October</text></g><g class="tick" opacity="1" transform="translate(514.5359673024524,0)"><line stroke="currentColor" y2="6"/><text fill="currentColor" y="9" dy="0.71em">2010</text></g><g class="tick" opacity="1" transform="translate(557.8929155313351,0)"><line stroke="currentColor" y2="6"/><text fill="currentColor" y="9" dy="0.71em">April</text></g><g class="tick" opacity="1" transform="translate(601.7316076294279,0)"><line stroke="currentColor" y2="6"/><text fill="currentColor" y="9" dy="0.71em">July</text></g><g class="tick" opacity="1" transform="translate(646.0520435967303,0)"><line stroke="currentColor" y2="6"/><text fill="currentColor" y="9" dy="0.71em">October</text></g><g class="tick" opacity="1" transform="translate(690.3724795640326,0)"><line stroke="currentColor" y2="6"/><text fill="currentColor" y="9" dy="0.71em">2011</text></g><g class="tick" opacity="1" transform="translate(733.7294277929155,0)"><line stroke="currentColor" y2="6"/><text fill="currentColor" y="9" dy="0.71em">April</text></g><g class="tick" opacity="1" transform="translate(777.5681198910082,0)"><line stroke="currentColor" y2="6"/><text fill="currentColor" y="9" dy="0.71em">July</text></g><g class="tick" opacity="1" transform="translate(821.8885558583106,0)"><line stroke="currentColor" y2="6"/><text fill="currentColor" y="9" dy="0.71em">October</text></g><g class="tick" opacity="1" transform="translate(866.2089918256131,0)"><line stroke="currentColor" y2="6"/><text fill="currentColor" y="9" dy="0.71em">2012</text></g><g class="tick" opacity="1" transform="translate(910.0476839237058,0)"><line stroke="currentColor" y2="6"/><text fill="currentColor" y="9" dy="0.71em">April</text></g></g><g transform="translate(40,0)" fill="none" font-size="10" font-family="sans-serif" text-anchor="end"><g class="tick" opacity="1" transform="translate(0,470.5)"><line stroke="currentColor" x2="-6"/><text fill="currentColor" x="-9" dy="0.32em">0</text></g><g class="tick" opacity="1" transform="translate(0,435.8846153846154)"><line stroke="currentColor" x2="-6"/><text fill="currentColor" x="-9" dy="0.32em">50</text></g><g class="tick" opacity="1" transform="translate(0,401.2692307692308)"><line stroke="currentColor" x2="-6"/><text fill="currentColor" x="-9" dy="0.32em">100</text></g><g class="tick" opacity="1" transform="translate(0,366.65384615384613)"><line stroke="currentColor" x2="-6"/><text fill="currentColor" x="-9" dy="0.32em">150</text></g><g class="tick" opacity="1" transform="translate(0,332.0384615384615)"><line stroke="currentColor" x2="-6"/><text fill="currentColor" x="-9" dy="0.32em">200</text></g><g class="tick" opacity="1" transform="translate(0,297.4230769230769)"><line stroke="currentColor" x2="-6"/><text fill="currentColor" x="-9" dy="0.32em">250</text></g><g class="tick" opacity="1" transform="translate(0,262.8076923076923)"><line stroke="currentColor" x2="-6"/><text fill="currentColor" x="-9" dy="0.32em">300</text></g><g class="tick" opacity="1" transform="translate(0,228.1923076923077)"><line stroke="currentColor" x2="-6"/><text fill="currentColor" x="-9" dy="0.32em">350</text></g><g class="tick" opacity="1" transform="translate(0,193.57692307692307)"><line stroke="currentColor" x2="-6"/><text fill="currentColor" x="-9" dy="0.32em">400</text></g><g class="tick" opacity="1" transform="translate(0,158.96153846153845)"><line stroke="currentColor" x2="-6"/><text fill="currentColor" x="-9" dy="0.32em">450</text></g><g class="tick" opacity="1" transform="translate(0,124.34615384615383)"><line stroke="currentColor" x2="-6"/><text fill="currentColor" x="-9" dy="0.32em">500</text></g><g class="tick" opacity="1" transform="translate(0,89.73076923076923)"><line stroke="currentColor" x2="-6"/><text fill="currentColor" x="-9" dy="0.32em">550</text></g><g class="tick" opacity="1" transform="translate(0,55.1153846153846)"><line stroke="currentColor" x2="-6"/><text fill="currentColor" x="-9" dy="0.32em">600</text></g><g class="tick" opacity="1" transform="translate(0,20.5)"><line stroke="currentColor" x2="-6"/><text fill="currentColor" x="-9" dy="0.32em">650</text><text fill="currentColor" x="3" dy="0.32em" text-anchor="start" font-weight="bold">$ Close</text></g></g><path fill="none" stroke="steelblue" stroke-width="1.5" stroke-linejoin="round" stroke-linecap="round" d="M40,405.4492307692308L40.481743869209815,403.98846153846154L40.963487738419616,401.5723076923077L41.44523160762943,400.82461538461536L42.890463215258855,400.90769230769234L43.85395095367848,401.1361538461539L44.335694822888286,400.49923076923073L44.817438692098094,400.4923076923077L45.29918256130791,400.20846153846156L46.744414168937325,398.05538461538464L47.22615803814714,397.2661538461538L47.70790190735695,396.0061538461539L47.70790190735695,395.6876923076923L48.189645776566756,394.71846153846155L49.63487738419618,394.2892307692308L50.116621253405995,395.5630769230769L50.5983651226158,395.6876923076923L51.08010899182562,394.2338461538461L51.56185286103542,393.83230769230767L53.00708446866485,392.47538461538466L53.488828337874665,391.3953846153846L53.970572207084466,391.8453846153846L54.452316076294274,393.3684615384615L54.93405994550409,391.34L56.86103542234333,390.83461538461546L57.342779291553136,387.7746153846154L57.82452316076294,386.0992307692308L58.78801089918257,388.03076923076924L60.23324250681199,386.0023076923077L60.7149863760218,385.07461538461536L61.196730245231606,384.4030769230769L61.678474114441414,384.1053846153846L62.16021798365122,383.81461538461537L63.123705722070845,386.79153846153844L63.60544959128065,386.65999999999997L64.08719346049047,388.6538461538462L64.56893732970028,387.7884615384615L65.05068119891008,386.5769230769231L66.49591280653951,383.39923076923077L66.97765667574933,384.3892307692308L67.45940054495912,385.84999999999997L67.94114441416895,384.2230769230769L68.42288828337874,384.84615384615387L69.86811989100818,385.3030769230769L70.34986376021799,387.16538461538465L70.8316076294278,385.6146153846154L71.31335149863762,386.5353846153846L71.79509536784741,385.5107692307692L73.72207084468664,386.0507692307692L74.20381471389646,381.95923076923077L75.16730245231608,378.09615384615387L75.64904632152587,378.40769230769234L77.09427792915531,379.7715384615385L77.09427792915531,378.3730769230769L77.57602179836513,378.3453846153846L78.05776566757493,377.1823076923077L78.53950953678475,374.6484615384615L79.98474114441417,374.3923076923077L80.46648501362398,373.8315384615385L80.94822888283377,374.37846153846147L81.4299727520436,373.0769230769231L81.9117166212534,370.4807692307692L83.35694822888283,370.5153846153846L83.83869209809265,376.6146153846154L84.32043596730244,374.9738461538461L84.80217983651227,368.9230769230769L85.28392370572207,370.41153846153844L86.7291553133515,372.0869230769231L87.2108991825613,378.7815384615385L88.17438692098094,376.5384615384615L88.65613079019073,375.50692307692304L89.13787465940055,378.7192307692307L90.58310626702998,376.3653846153846L91.06485013623978,376.5176923076923L91.54659400544959,377.2238461538462L92.0283378746594,382.49923076923073L92.0283378746594,383.4615384615385L93.47356948228882,381.53000000000003L93.95531335149863,384.13307692307694L94.43705722070845,386.9923076923077L94.91880108991825,388.9653846153846L95.40054495912807,385.49692307692305L96.84577656675751,385.38615384615383L97.3275204359673,381.6823076923077L97.80926430517711,378.26230769230773L98.29100817438692,379.2592307692308L98.77275204359673,376.33076923076925L100.21798365122616,378.4423076923077L100.69972752043597,382.20153846153846L101.18147138964576,377.1753846153846L101.66321525885559,375.6730769230769L102.1449591280654,374.12923076923073L104.55367847411443,370.1969230769231L105.03542234332426,375.32000000000005L105.51716621253405,376.5315384615385L105.99891008174387,378.7746153846154L106.96239782016349,375.3546153846154L107.4441416893733,376.1992307692308L107.9258855585831,375.2576923076923L108.40762942779293,375.0153846153846L108.88937329700272,373.9007692307692L110.33460490463214,374.1776923076923L110.81634877384198,372.44L111.29809264305177,372.5438461538461L111.77983651226158,372.8623076923077L112.26158038147139,370.2038461538462L113.70681198910081,367.3446153846154L114.18855585831062,363.9523076923077L114.67029972752043,364.23615384615385L115.15204359673025,363.03846153846155L115.63378746594006,363.7515384615384L117.56076294277929,361.76461538461535L118.04250681198911,360.30384615384617L118.52425068119891,360.6707692307693L119.00599455040872,361.83384615384614L119.48773841961852,358.226923076923L120.93297002724796,353.7546153846154L121.41471389645776,353.78923076923076L121.41471389645776,354.53000000000003L121.89645776566756,357.68692307692305L122.37820163487739,354.21153846153845L123.82343324250681,354.3984615384615L124.30517711171663,352.5984615384615L124.78692098092642,350.4038461538462L125.26866485013625,349.8846153846154L125.75040871934604,352.0169230769231L127.19564032697548,349.2892307692308L127.67738419618529,341.12L128.1591280653951,341.2792307692308L128.6408719346049,343.46000000000004L129.1226158038147,342.1307692307692L130.56784741144415,341.8607692307692L131.04959128065394,340.53846153846155L131.53133514986376,338.49615384615385L132.49482288828338,340.2338461538462L132.97656675749317,339.93615384615384L134.4217983651226,341.10615384615386L134.90354223433243,337.2223076923077L135.38528610354223,341.0230769230769L135.86702997275205,348.5207692307692L136.34877384196187,355.51307692307694L137.31226158038146,363.5507692307692L137.79400544959128,352.3353846153846L138.2757493188011,355.0007692307692L138.7574931880109,356.25384615384615L139.23923705722072,354.8069230769231L140.68446866485016,356.49615384615385L141.16621253405995,353.1038461538462L141.64795640326975,353.37384615384616L142.61144414168936,351.2415384615384L144.0566757493188,350.54923076923075L144.53841961852862,348.97769230769234L145.02016348773844,345.2323076923077L145.50190735694824,342.4146153846154L145.98365122615803,343.84769230769234L147.91062670299726,346.1738461538461L148.39237057220708,345.5161538461538L148.87411444141688,341.5769230769231L149.3558583106267,338.49615384615385L149.8376021798365,335.4846153846154L150.80108991825614,335.54692307692306L151.28283378746593,339.4723076923077L151.76457765667575,337.8661538461538L152.24632152588555,337.19461538461536L152.72806539509537,338.19153846153847L154.17329700272478,342.33846153846156L154.6550408719346,343.3215384615385L155.13678474114442,343.2246153846154L155.61852861035422,340.393076923077L156.100272479564,335.7546153846154L157.54550408719345,332.36923076923074L158.5089918256131,332.2653846153846L158.9907356948229,332.5284615384615L159.4724795640327,331.65615384615387L160.91771117166212,332.8676923076923L162.36294277929153,335.1107692307692L162.84468664850135,335.04846153846154L163.32643051771117,345.35L164.7716621253406,347.0184615384615L165.2534059945504,351.44230769230774L165.7351498637602,345.79999999999995L165.7351498637602,346.7553846153846L166.21689373297002,350.4453846153846L167.66212534059946,346.22923076923075L168.14386920980928,352.9723076923077L168.62561307901908,359.47999999999996L169.10735694822887,358.6146153846154L169.5891008174387,358.28923076923076L171.51607629427792,362.2492307692308L171.99782016348775,373.7207692307692L172.4795640326975,376.1230769230769L172.96130790190736,379.9930769230769L174.40653950953677,379.9930769230769L174.8882833787466,378.93384615384616L175.3700272479564,378.49076923076916L175.8517711171662,376.28923076923076L176.81525885558585,377.4038461538462L178.26049046321526,378.8576923076923L178.74223433242508,380.44307692307694L179.22397820163488,385.53846153846155L179.70572207084467,386.0646153846154L180.1874659400545,383.1292307692308L181.15095367847414,380.3807692307692L181.63269754768393,383.5584615384616L182.11444141689373,380.41538461538454L182.59618528610355,381.7584615384616L183.07792915531334,383.7176923076923L185.0049046321526,385.4138461538461L185.48664850136237,384.2784615384615L185.9683923705722,385.856923076923L186.450136239782,387.29692307692306L187.89536784741145,387.1030769230769L188.37711171662124,387.51153846153846L188.85885558583107,384.87384615384616L189.34059945504086,380.06230769230774L189.8223433242507,383.44769230769225L191.7493188010899,385.7253846153846L192.2310626702997,383.7246153846154L192.71280653950953,383.81461538461537L193.19455040871935,386.27923076923076L193.67629427792917,385.36538461538464L194.63978201634876,387.1376923076923L195.12152588555858,381.8346153846154L195.6032697547684,382.7484615384616L196.08501362397823,381.42615384615385L196.56675749318802,382.3469230769231L198.01198910081743,382.26384615384615L198.49373297002728,378.0476923076923L198.97547683923705,380.22846153846154L199.45722070844687,377.7361538461538L201.3841961852861,373.4023076923077L201.86594005449592,372.3984615384615L202.34768392370572,369.57384615384615L202.8294277929155,372.9038461538462L203.31117166212533,370.99307692307696L204.75640326975477,370.65384615384613L205.7198910081744,366.4792307692308L206.20163487738418,367.89153846153846L206.683378746594,365.03923076923076L207.1651226158038,364.02153846153846L208.61035422343326,362.0761538461539L209.09209809264303,364.1876923076923L209.57384196185285,365.1569230769231L209.57384196185285,363.0038461538462L210.05558583106267,368.13384615384615L211.5008174386921,367.69076923076926L211.98256130790188,367.2753846153846L212.4643051771117,363.59230769230766L212.94604904632155,363.0453846153846L213.42779291553134,358.51076923076926L214.87302452316075,353.58153846153846L215.35476839237057,359.09230769230766L215.8365122615804,357.23L216.3182561307902,353.0415384615385L216.8,352.4946153846154L218.24523160762942,350.75692307692304L218.72697547683924,348.8115384615385L219.20871934604904,349.57307692307694L220.17220708446868,345.38461538461536L220.65395095367845,344.73384615384623L222.09918256130788,342.11L222.5809264305177,340.77384615384614L223.06267029972753,343.5915384615385L223.54441416893732,341.8815384615384L224.02615803814714,342.99615384615385L224.98964577656676,339.73538461538465L225.47138964577655,338.48923076923074L225.95313351498638,341.0507692307692L226.43487738419617,338.64846153846156L226.91662125340602,340.1092307692308L228.36185286103543,342.8923076923077L228.84359673024522,341.3L229.32534059945505,346.6376923076923L229.80708446866487,347.42692307692306L230.28882833787466,344.5746153846154L232.21580381471387,340.9330769230769L232.69754768392372,340.5315384615385L233.17929155313354,340.7530769230769L233.6610354223433,339.32692307692304L235.58801089918256,341.16153846153844L236.0697547683924,341.6669230769231L236.5514986376022,341.79153846153844L237.03324250681197,338.85615384615386L237.5149863760218,341.48L238.96021798365123,344.27L238.96021798365123,341.48L239.44196185286103,344.8238461538462L239.92370572207085,350.0507692307692L240.40544959128064,350.66692307692307L241.8506811989101,347.5723076923077L242.33242506811987,344.3946153846154L242.8141689373297,346.25L243.29591280653952,344.7615384615384L243.7776566757493,348.65923076923076L245.22288828337872,350.12L245.70463215258854,350.05769230769226L246.18637602179837,347.19153846153847L246.66811989100816,353.51230769230773L247.14986376021798,352.2453846153846L248.5950953678474,354.08L249.558583106267,349.0676923076923L250.04032697547686,353.5676923076923L250.52207084468665,352.22461538461533L252.44904632152588,348.7353846153846L252.9307901907357,345.69615384615383L253.41253405994553,349.36538461538464L253.41253405994553,347.71769230769235L253.8942779291553,350.52153846153846L255.33950953678476,349.6215384615385L255.82125340599455,352.55692307692306L256.30299727520435,350.3623076923077L256.78474114441417,351.0546153846154L257.266485013624,355.6653846153846L258.7117166212534,354.87615384615384L259.1934604904632,357.8323076923077L259.67520435967305,354.8969230769231L260.1569482288828,359.90230769230766L260.63869209809263,357.76307692307694L262.08392370572204,363.1076923076923L262.56566757493187,361.2523076923077L263.0474114441417,359.31384615384616L263.5291553133515,359.95769230769235L264.4926430517711,361.5430769230769L265.93787465940056,363.9176923076923L266.41961852861033,358.7876923076923L266.9013623978202,356.33000000000004L267.38310626703003,356.7592307692307L267.86485013623974,352.6192307692308L268.8283378746594,349.8430769230769L269.3100817438692,347.64846153846156L269.791825613079,345.8692307692308L270.27356948228885,345.85538461538454L270.75531335149867,348.33384615384614L272.200544959128,348.57615384615383L272.6822888283379,349.8638461538461L273.1640326975477,348.2646153846154L273.6457765667575,349.3376923076923L274.1275204359673,347.6069230769231L275.5727520435967,350.54230769230776L276.05449591280654,349.78769230769234L276.53623978201637,349.07461538461547L277.0179836512262,349.7184615384615L277.49972752043595,352.6330769230769L279.908446866485,354.94538461538457L280.39019073569483,354.4123076923077L280.87193460490465,358.38615384615383L281.3536784741144,359.10615384615386L282.7989100817439,360.6707692307693L283.2806539509537,364.9907692307693L283.2806539509537,365.03923076923076L283.76239782016347,364.3192307692308L284.24414168937335,366.88769230769236L285.6893732970027,372.82769230769236L286.1711171662125,373.15999999999997L286.65286103542235,381.5023076923077L287.13460490463217,377.16846153846154L287.61634877384193,372.44692307692304L289.0615803814714,379.2730769230769L289.5433242506812,382.1876923076924L290.02506811989105,380.89307692307693L290.50681198910087,378.6638461538461L290.9885558583106,381.21846153846155L292.43378746594004,397.12769230769226L292.91553133514986,391.31230769230774L293.87901907356945,394.4553846153846L294.3607629427793,400.7L294.8425068119891,402.79769230769233L296.28773841961856,402.05692307692306L296.7694822888283,408.2738461538462L297.25122615803815,407.8376923076923L297.7329700272479,408.56461538461537L297.7329700272479,402.9846153846154L299.1782016348774,393.66615384615386L299.6599455040872,397.94461538461536L300.141689373297,402.1884615384615L300.62343324250685,399.4607692307692L301.1051771117166,402.5692307692307L302.550408719346,401.8492307692308L303.03215258855585,406.66076923076923L303.51389645776567,402.9361538461538L303.9956403269755,401.9946153846154L304.47738419618526,403.2753846153846L305.9226158038147,406.24538461538464L306.40435967302454,400.8315384615384L306.88610354223437,397.61923076923074L307.3678474114442,393.12615384615384L307.84959128065395,395.5146153846154L309.7765667574932,395.9507692307692L310.258310626703,393.16076923076923L310.7400544959128,398.4846153846154L311.2217983651226,401.39230769230767L311.7035422343324,401.9876923076923L312.66702997275206,403.6215384615385L313.1487738419619,404.39000000000004L313.6305177111717,407.60923076923075L314.11226158038147,403.2338461538461L314.59400544959124,407.5261538461539L316.0392370572207,408.98L316.5209809264305,407.7546153846154L317.00272479564035,410.2607692307692L317.48446866485017,414.2761538461539L317.96621253405993,412.8292307692308L319.4114441416894,405.65000000000003L319.89318801089917,407.13846153846157L320.374931880109,404.23076923076917L320.85667574931875,404.23076923076917L321.3384196185286,405.8438461538462L323.26539509536786,408.43307692307695L323.7471389645777,405.98230769230776L324.22888283378745,403.60769230769233L324.7106267029973,406.7161538461539L325.1923705722071,404.9230769230769L326.6376021798365,400.9630769230769L327.1193460490463,400.7276923076923L327.1193460490463,402.0084615384615L327.6010899182561,404.23076923076917L328.082833787466,401.9669230769231L329.5280653950954,404.40384615384613L330.0098092643052,403.93307692307695L330.491553133515,408.2738461538462L330.9732970027248,408.08692307692303L331.45504087193456,407.69230769230774L332.900272479564,410.64153846153846L333.38201634877385,410.1984615384616L333.86376021798367,411.12615384615384L334.3455040871935,411.12615384615384L334.82724795640326,410.5930769230769L336.2724795640327,410.03923076923076L336.75422343324254,410.2607692307692L337.2359673024523,410.91153846153844L338.1994550408719,410.91153846153844L338.6811989100817,407.17307692307696L340.1264305177112,404.52153846153846L340.608174386921,405.60153846153844L341.0899182561308,406.9930769230769L341.5716621253406,405.82307692307694L342.0534059945504,407.29076923076923L343.01689373297,408.62L343.4986376021798,409.2776923076923L343.98038147138965,410.9253846153846L344.4621253405994,412.2753846153846L344.94386920980924,413.0023076923077L346.8708446866485,415.8615384615385L347.35258855585835,412.65615384615387L347.8343324250681,408.8276923076923L348.31607629427793,408.8276923076923L349.76130790190734,407.94153846153847L350.24305177111717,407.18692307692305L350.724795640327,404.7846153846154L351.2065395095368,405.61538461538464L351.68828337874663,407.60230769230776L353.61525885558586,406.6469230769231L354.09700272479563,405.6292307692308L354.5787465940054,405.2346153846154L355.0604904632152,403.22L355.54223433242504,400.9630769230769L356.98746594005456,399.03153846153845L356.98746594005456,402.27153846153846L357.46920980926427,402.9707692307693L357.9509536784741,401.27461538461534L358.4326975476839,401.35076923076923L360.35967302452315,404.5561538461538L360.8414168937329,404.6669230769231L361.32316076294273,407.24923076923073L361.80490463215256,406.8615384615385L363.250136239782,409.80384615384617L363.73188010899185,407.5192307692308L364.2136239782016,406.8892307692308L364.69536784741143,408.25307692307695L365.17711171662125,408.17L367.1040871934605,409.11846153846153L367.58583106267025,408.82076923076926L368.06757493188013,406.88230769230773L368.54931880108995,408.4953846153846L369.0310626702997,410.94615384615383L370.4762942779292,412.4623076923077L370.4762942779292,408.64076923076925L370.95803814713895,405.83692307692303L371.4397820163488,403.2961538461539L371.9215258855586,403.5869230769231L373.366757493188,403.93999999999994L373.8485013623978,401.00461538461536L374.33024523160765,399.7169230769231L374.8119891008174,399.6476923076923L375.29373297002724,399.66846153846154L376.7389645776567,395.4661538461539L377.2207084468665,396.2692307692308L377.70245231607623,396.2761538461539L378.18419618528605,393.93615384615384L378.6659400544959,396.0269230769231L380.1111716621254,397.66076923076923L380.59291553133517,397.22461538461533L381.55640326975475,394.75307692307695L382.0381471389646,391.97L382.5198910081744,389.6992307692308L383.96512261580375,387.9961538461539L384.4468664850136,390.38461538461536L384.9286103542234,389.47076923076924L385.4103542234333,387.22076923076924L385.4103542234333,387.22076923076924L386.8555858310627,386.77076923076925L387.33732970027245,388.093076923077L387.81907356948227,388.5569230769231L388.3008174386921,385.91923076923075L388.7825613079019,384.55538461538464L390.2277929155313,386.5769230769231L390.70953678474115,385.70461538461535L391.19128065395097,385.8776923076923L391.6730245231608,383.18461538461537L392.15476839237056,384.2230769230769L393.6,383.64846153846156L394.0817438692098,384.2230769230769L394.5634877384196,383.36461538461543L395.0452316076294,382.8869230769231L396.008719346049,381.91076923076923L397.4539509536785,378.56692307692305L397.9356948228883,378.12384615384616L398.4174386920981,378.26923076923083L398.8991825613079,380.6507692307692L399.3809264305177,380.5607692307692L400.34441416893736,380.2976923076924L400.8261580381471,383.8630769230769L401.3079019073569,387.2761538461538L401.7896457765667,384.88076923076926L402.2713896457766,385.2476923076923L403.71662125340606,382.3192307692308L404.19836512261577,381.7653846153847L404.6801089918256,382.8592307692308L405.1618528610354,384.02923076923076L405.64359673024524,385.1923076923077L407.5705722070844,379.46L408.0523160762943,377.8884615384615L408.5340599455041,376.49L409.01580381471393,375.9776923076923L410.9427792915531,373.526923076923L411.42452316076293,373.42999999999995L411.90626702997275,372.4192307692308L412.3880108991825,370.4876923076923L412.86975476839234,369.84384615384613L414.3149863760218,370.41153846153844L414.79673024523163,371.19384615384615L414.79673024523163,372.9038461538462L415.27847411444145,373.1115384615385L415.7602179836512,375.1746153846154L417.2054495912806,375.7838461538462L417.68719346049045,375.6038461538462L418.16893732970027,376.1369230769231L418.65068119891004,375.92923076923074L419.13242506811986,373.43692307692305L420.5776566757493,374.89769230769224L421.0594005449591,377.2238461538462L421.5411444141689,375.69384615384615L422.02288828337873,373.17384615384617L422.50463215258856,371.3876923076923L423.94986376021797,371.71307692307687L424.43160762942773,371.39461538461535L425.39509536784743,371.11769230769227L425.87683923705725,373.0630769230769L426.3585831062671,373.0630769230769L427.80381471389643,374.03923076923076L428.28555858310625,376.26153846153846L428.7673024523161,375.0015384615385L429.2490463215259,375.596923076923L429.2490463215259,374.1015384615385L430.6942779291553,371.4569230769231L431.1760217983651,371.5053846153846L431.65776566757495,368.3138461538462L432.1395095367848,367.87076923076927L432.6212534059946,364.9423076923077L434.06648501362395,364.1392307692308L434.54822888283377,365.10846153846154L435.0299727520436,361.48769230769227L435.5117166212534,360.74L435.9934604904632,359.2376923076923L437.43869209809264,359.16153846153844L437.92043596730247,359.2307692307692L438.4021798365123,359.21L438.88392370572205,357.2992307692308L439.3656675749319,356.88384615384615L441.2926430517711,354.77923076923076L441.7743869209809,355.38846153846146L442.25613079019075,355.69307692307694L442.7378746594006,356.5238461538462L443.2196185286104,355.41615384615386L444.18310626703,355.9630769230769L445.1465940054496,355.55461538461543L445.6283378746594,353.40153846153845L446.1100817438692,354.5369230769231L447.55531335149857,359.5146153846154L448.03705722070845,356.46153846153845L448.51880108991827,356.04615384615386L449.0005449591281,354.84846153846155L449.4822888283379,352.8476923076923L450.92752043596727,352.95846153846156L451.4092643051771,352.7230769230769L451.8910081743869,354.10076923076923L452.37275204359673,352.6884615384615L452.85449591280656,352.2730769230769L454.29972752043597,353.54692307692306L455.2632152588556,355.5615384615384L455.74495912806543,355.6446153846154L456.2267029972752,354.69615384615383L456.708446866485,352.0930769230769L458.63542234332425,350.27923076923076L459.117166212534,351.5184615384615L459.117166212534,350.53538461538466L459.5989100817439,350.8123076923077L461.0441416893733,349.73230769230776L461.5258855585831,348.7353846153846L462.0076294277929,344.09L462.4893732970027,342.2346153846154L462.97111716621254,341.90923076923076L464.41634877384195,342.6015384615385L464.89809264305177,342.283076923077L465.3798365122616,341.5769230769231L465.8615803814714,342.74L466.34332425068123,343.74384615384616L467.7885558583106,341.12692307692305L468.2702997275204,341.66L468.75204359673023,341.6807692307693L469.7155313351499,344.7892307692308L470.1972752043597,341.9923076923077L471.6425068119891,341.216923076923L472.12425068119893,338.4546153846154L472.60599455040875,338.28846153846155L473.0877384196186,338.9669230769231L473.56948228882834,338.13615384615383L474.5329700272479,337.90076923076924L475.01471389645775,338.4476923076923L475.49645776566757,337.5684615384616L475.97820163487734,338.07384615384615L476.45994550408716,339.8115384615385L477.9051771117166,338.5584615384616L478.38692098092645,332.3969230769231L478.86866485013627,328.1323076923077L479.35040871934604,327.9384615384615L479.83215258855586,328.81076923076927L481.27738419618527,329.82153846153847L481.7591280653951,333.35923076923075L482.24087193460485,336.8L482.7226158038147,334.0653846153846L483.2043596730245,339.5L485.13133514986373,338.93923076923073L485.61307901907355,339.32692307692304L486.0948228882834,337.90076923076924L486.5765667574932,335.67153846153843L487.058310626703,335.45692307692303L488.5035422343325,330.52769230769235L488.5035422343325,329.4753846153846L488.9852861035422,329.28846153846155L489.467029972752,330.16076923076923L489.94877384196184,328.4576923076923L491.39400544959125,326.9484615384615L491.87574931880107,326.69230769230774L492.3574931880109,327.41230769230765L492.8392370572207,331.18538461538463L493.32098092643054,331.5938461538462L494.76621253406,327.4676923076923L495.2479564032698,328.4646153846154L495.72970027247953,328.63769230769236L496.21144414168936,328.63769230769236L496.6931880108991,331.13000000000005L498.1384196185286,331.6007692307693L499.10190735694823,333.6361538461539L499.58365122615805,334.14846153846156L500.0653950953679,333.9753846153846L500.5471389645777,336.1630769230769L501.99237057220705,339.1884615384615L502.4741144414169,338.5515384615385L502.95585831062664,333.0615384615384L502.95585831062664,334.01L503.43760217983646,335.2284615384615L504.882833787466,333.6292307692308L505.36457765667575,335.5746153846154L505.84632152588557,334.97923076923075L506.3280653950954,337.1738461538461L506.8098092643052,334.7023076923076L508.2550408719346,332.76384615384615L508.73678474114433,331.28923076923076L509.21852861035416,330.0846153846154L509.700272479564,325.28000000000003L510.1820163487738,325.28000000000003L511.62724795640327,323.5007692307692L512.1089918256131,325.23846153846154L512.5907356948229,323.48L513.0724795640327,324.10999999999996L514.0359673024524,324.10999999999996L515.4811989100817,321.83923076923077L515.9629427792916,321.58307692307693L516.4446866485014,323.94384615384615L516.9264305177112,324.21384615384613L517.408174386921,323.2446153846154L518.3716621253405,324.53923076923076L518.8534059945504,326.1938461538461L519.3351498637602,324.16538461538454L519.81689373297,325.01L520.2986376021798,327.4330769230769L521.7438692098093,327.4330769230769L522.225613079019,321.12615384615384L522.7073569482288,323.4246153846154L523.1891008174387,325.95153846153846L523.6708446866485,333.0961538461538L525.116076294278,329.4061538461538L525.5978201634878,327.42615384615385L526.0795640326976,326.08307692307693L526.5613079019074,332.03000000000003L527.0430517711171,337.03538461538466L528.9700272479564,335.1869230769231L529.4517711171662,334.40461538461534L529.9335149863759,332.07153846153847L530.4152588555858,337.0423076923077L530.8970027247957,334.6815384615385L532.342234332425,335.60923076923075L532.8239782016349,334.17615384615385L532.8239782016349,334.91692307692307L533.3057220708447,332.45923076923077L533.7874659400545,331.2753846153846L535.2326975476839,331.2753846153846L535.7144414168937,329.18461538461537L536.1961852861035,329.7730769230769L536.6779291553133,329.51L537.1596730245232,330.38230769230773L538.6049046321525,331.2476923076923L539.0866485013624,333.57384615384615L539.5683923705722,331.08153846153846L540.0501362397821,330.1538461538462L540.5318801089918,328.34000000000003L542.4588555858311,325.3146153846154L542.9405994550408,325.4115384615385L543.4223433242507,325.0792307692308L543.9040871934604,324.12384615384616L544.3858310626704,318.41923076923075L545.8310626702997,318.3292307692308L546.3128065395096,315.60153846153844L546.3128065395096,314.3415384615385L546.7945504087194,313.88461538461536L547.2762942779292,313.12307692307695L548.7215258855585,315.0338461538462L549.2032697547684,314.6115384615385L549.6850136239782,314.84000000000003L550.166757493188,314.4730769230769L550.6485013623978,316.13461538461536L552.0937329700272,314.40384615384613L552.5754768392371,311.9046153846154L553.0572207084468,311.2053846153846L553.5389645776567,313.0884615384616L554.0207084468666,310.1461538461538L555.4659400544958,309.1146153846154L555.9476839237057,306.7261538461538L556.4294277929155,307.30769230769226L557.3929155313351,306.63615384615383L557.8746594005449,306.63615384615383L559.3198910081744,304.8915384615384L559.8016348773842,304.1646153846154L560.283378746594,303.4307692307692L560.7651226158039,303.88076923076926L561.2468664850137,302.6069230769231L562.2103542234332,302.2607692307692L562.6920980926429,302.1638461538462L563.1738419618529,299.90692307692314L563.6555858310626,297.67076923076917L564.1373297002725,298.7230769230769L565.582561307902,298.95153846153846L566.0643051771117,300.66846153846154L566.5460490463216,290.53999999999996L567.0277929155313,285.52076923076925L567.5095367847412,282.50230769230774L568.9547683923705,283.42307692307696L569.4365122615803,288.5876923076923L569.9182561307902,288.89230769230767L570.4,284.01846153846157L570.8817438692098,289.24538461538464L572.8087193460491,285.6038461538461L573.2904632152588,290.9138461538461L573.7722070844687,292.7830769230769L574.2539509536784,299.5192307692308L574.7356948228884,306.7123076923077L575.6991825613079,294.1607692307692L576.1809264305177,292.40923076923076L576.6626702997274,288.55307692307696L577.1444141689374,291.1353846153846L577.6261580381471,294.2784615384615L579.0713896457767,294.0015384615385L579.5531335149864,295.28923076923076L580.0348773841962,298.07230769230773L580.516621253406,305.3969230769231L580.9983651226158,302.24L582.4435967302452,299.16615384615386L582.925340599455,300.2323076923077L583.4070844686648,301.00076923076927L583.8888283378747,294.6038461538461L584.3705722070845,292.16L585.8158038147138,292.16L586.7792915531335,289.42538461538464L587.2610354223434,287.2653846153847L587.7427792915531,287.84L588.2245231607629,292.79692307692306L589.6697547683924,296.2723076923077L590.1514986376021,297.38692307692304L590.633242506812,301.63076923076926L590.633242506812,296.57000000000005L591.1149863760218,294.4930769230769L592.5602179836512,293.96000000000004L593.041961852861,290.2146153846154L593.5237057220709,284.9807692307692L594.0054495912807,281.7823076923077L594.4871934604905,280.25923076923084L595.9324250681199,282.95923076923077L596.4141689373297,280.41153846153844L596.8959128065395,282.4053846153846L597.3776566757492,283.7692307692308L597.8594005449592,285.3615384615385L599.3046321525886,284.25384615384615L599.7863760217983,292.6515384615385L600.2681198910083,295.86384615384617L601.2316076294279,297.97538461538466L601.7133514986375,299.04153846153844L603.158583106267,299.04153846153844L603.6403269754768,297.8715384615384L604.1220708446866,290.92769230769227L604.6038147138966,291.32230769230773L605.0855585831063,290.2630769230769L606.0490463215259,291.88307692307694L606.5307901907357,295.67692307692306L607.0125340599456,295.0330769230769L607.4942779291554,295.91923076923075L607.9760217983651,296.99230769230775L609.4212534059945,299.9830769230769L609.9029972752043,295.61461538461543L610.3847411444142,293.98769230769227L610.866485013624,290.67846153846153L611.3482288828337,290.0415384615385L612.7934604904633,290.4984615384615L613.275204359673,287.17538461538464L613.756948228883,289.3353846153846L614.2386920980927,291.30846153846153L614.7204359673025,291.90384615384613L616.6474114441417,288.71923076923076L617.1291553133515,288.6638461538461L617.6108991825613,287.93692307692305L618.0926430517711,288.82307692307694L618.5743869209809,289.93769230769226L620.0196185286104,288.78846153846155L620.0196185286104,290.4084615384615L620.5013623978201,296.7915384615385L620.98310626703,295.68384615384616L621.4648501362398,297.54615384615386L622.9100817438691,298.5569230769231L623.391825613079,295.5592307692308L623.8735694822888,294.7976923076923L624.3553133514987,297.00615384615384L624.8370572207084,297.1723076923077L626.2822888283379,299.83076923076925L626.7640326975477,303.8946153846154L627.2457765667575,301.84538461538466L627.7275204359673,303.6523076923077L628.2092643051772,302.7246153846154L629.6544959128065,302.1153846153846L630.1362397820163,301.70000000000005L631.099727520436,296.6946153846154L631.5814713896458,295.4207692307693L632.0632152588555,290.8515384615385L633.5084468664851,290.8515384615385L633.9901907356949,291.5161538461538L634.4719346049046,287.97846153846154L634.9536784741144,287.87461538461537L634.9536784741144,287.6392307692308L636.3989100817438,285.12615384615384L636.8806539509537,284.42L637.3623978201634,282.9246153846154L637.8441416893733,278.52846153846156L638.3258855585831,279.35923076923075L639.7711171662125,273.9176923076922L640.2528610354224,273.5438461538461L640.7346049046322,270.78846153846155L641.216348773842,269.97846153846154L641.6980926430517,267.6246153846154L643.1433242506812,268.42769230769227L643.6250681198909,271.4046153846154L644.1068119891008,271.0515384615385L644.5885558583107,273.5576923076923L645.5520435967303,274.4092307692308L646.9972752043597,277.09538461538466L647.4790190735696,269.9646153846154L647.9607629427793,269.7915384615385L648.4425068119891,269.7707692307692L648.9242506811988,266.41307692307686L649.8877384196185,265.52L650.3694822888283,263.3184615384616L650.8512261580382,262.21076923076924L651.3329700272479,260.7084615384615L651.8147138964578,252.10307692307694L653.2599455040872,249.84615384615384L653.741689373297,255.73769230769227L654.2234332425069,255.01769230769236L654.7051771117167,255.71692307692305L655.1869209809263,257.13615384615383L656.6321525885559,256.1876923076923L657.1138964577657,256.7346153846154L657.5956403269754,256.88692307692304L658.0773841961853,258.68L658.559128065395,261.62923076923073L660.4861035422343,259.4138461538461L660.9678474114442,255.82769230769233L661.449591280654,253.44615384615386L661.9313351498637,249.65923076923076L662.4130790190736,250.44846153846157L663.858310626703,249.41692307692304L664.3400544959128,251.17538461538462L664.3400544959128,249.82538461538462L664.8217983651226,250.77384615384616L665.3035422343324,256.7484615384616L666.7487738419618,257.4338461538461L667.2305177111717,261.2069230769231L667.7122615803814,261.96153846153845L668.1940054495913,256.47153846153844L668.6757493188011,257.64846153846156L670.1209809264304,253.05846153846153L670.6027247956404,256.26384615384615L671.0844686648501,252.06153846153845L672.0479564032697,251.92307692307688L673.4931880108992,250.62846153846155L673.9749318801091,254.58846153846156L674.9384196185285,250.95384615384617L675.4201634877384,249.74230769230775L675.9019073569482,250.23384615384617L677.3471389645777,248.35769230769233L677.8288828337875,249.70076923076925L678.3106267029972,247.7623076923077L678.7923705722071,248.6276923076923L678.7923705722071,248.07384615384612L680.2376021798366,247.3053846153846L680.7193460490463,248.2607692307692L681.2010899182562,248.2123076923077L681.6828337874658,247.59615384615384L682.1645776566758,248.03923076923076L683.6098092643051,246.93153846153848L684.0915531335149,245.55384615384617L684.5732970027249,244.88923076923072L685.0550408719346,245.9692307692308L686.9820163487739,245.22153846153844L687.4637602179837,244.67461538461538L687.9455040871935,244.79923076923077L688.4272479564032,245.9276923076923L688.908991825613,246.6892307692308L690.8359673024523,241.83615384615388L691.3177111716622,240.6453846153846L691.799455040872,238.76923076923077L692.2811989100817,238.95615384615382L692.7629427792916,237.30153846153848L693.7264305177113,232.91230769230773L694.208174386921,233.48000000000002L694.6899182561309,231.55538461538458L695.1716621253405,230.68307692307695L695.6534059945503,228.7446153846154L697.5803814713896,234.16538461538465L698.0621253405994,235.41846153846157L698.5438692098093,239.6830769230769L699.0256130790191,243.80923076923077L700.4708446866485,236.3807692307692L700.9525885558584,233.64615384615388L701.4343324250681,231.95L701.9160762942779,232.39307692307696L702.3978201634877,237.31538461538463L703.8430517711171,235.08615384615388L704.8065395095367,231.13307692307694L705.2882833787467,231.62461538461537L705.7700272479564,232.23384615384612L706.2517711171663,230.1153846153846L707.6970027247957,226.39076923076922L708.1787465940054,224.0923076923077L708.6604904632153,222.04307692307688L708.6604904632153,224.54923076923075L709.142234332425,222.94999999999996L710.5874659400545,221.33692307692309L711.0692098092643,220.83846153846153L711.5509536784741,218.6023076923077L712.0326975476839,221.9461538461538L712.5144414168938,227.3046153846154L714.441416893733,235.5776923076923L714.9231607629428,232.80153846153846L715.4049046321525,232.62153846153845L715.8866485013624,228.96615384615384L717.3318801089918,225.47L718.2953678474114,228.17L718.7771117166212,226.22461538461536L719.2588555858312,221.07384615384618L719.7405994550409,220.76923076923075L721.1858310626703,223.98153846153843L721.66757493188,223.70461538461538L722.1493188010899,225.9823076923077L722.1493188010899,229.99769230769232L722.6310626702997,226.31461538461542L724.0762942779292,225.22769230769228L724.558038147139,230.85615384615383L725.0397820163488,241.53153846153845L725.5215258855586,238.32615384615386L726.0032697547684,241.07461538461538L727.4485013623979,235.1L727.9302452316075,233.78461538461536L728.4119891008174,235.17615384615385L728.8937329700271,231.17461538461538L729.3754768392371,226.62615384615384L730.8207084468665,227.38769230769228L731.3024523160763,227.02769230769235L731.7841961852862,228.64076923076922L732.2659400544959,228.72384615384618L733.2294277929155,231.45846153846156L734.6746594005449,233.79153846153847L735.1564032697547,235.3838461538462L735.6381471389645,235.9723076923077L736.1198910081744,235.94461538461542L736.6016348773842,238.03538461538463L737.5651226158038,240.98461538461538L738.0468664850137,239.8769230769231L738.5286103542235,237.2946153846154L739.0103542234333,239.8630769230769L739.492098092643,243.29692307692306L740.9373297002726,240.25769230769228L741.4190735694823,236.09692307692308L741.900817438692,232.94692307692307L742.3825613079019,227.20769230769233L744.3095367847411,225.60846153846157L744.7912806539509,227.40153846153848L745.2730245231608,227.58846153846156L745.7547683923706,229.9423076923077L746.2365122615804,227.6023076923077L748.1634877384196,230.26769230769233L748.6452316076294,228.93846153846155L749.1269754768392,227.99000000000004L749.608719346049,229.9423076923077L750.0904632152589,230.00461538461533L751.5356948228883,229.35384615384615L751.5356948228883,228.0730769230769L752.017438692098,229.60999999999999L752.499182561308,230.0669230769231L752.9809264305177,234.26923076923077L754.4261580381472,239.25384615384618L754.907901907357,237.28769230769228L755.3896457765667,234.7053846153846L755.8713896457766,234.24846153846156L756.3531335149863,237.92461538461535L757.7983651226158,238.4923076923077L758.2801089918256,240.0223076923077L758.7618528610354,236.8446153846154L759.2435967302453,238.0769230769231L759.7253405994551,236.4084615384615L761.6523160762943,229.1946153846154L762.6158038147138,230.80076923076925L763.0975476839237,230.39230769230767L763.5792915531334,232.23384615384612L765.0245231607629,235.9723076923077L765.5062670299728,240.1261538461538L765.9880108991825,239.98769230769233L766.4697547683925,240.5069230769231L766.4697547683925,244.3769230769231L767.9149863760217,243.89230769230767L768.3967302452315,239.84923076923076L768.8784741144414,243.78846153846158L769.3602179836512,244.88923076923072L769.8419618528611,248.28153846153847L771.2871934604905,251.7015384615385L771.7689373297003,244.79230769230767L772.2506811989101,246.6546153846154L772.7324250681199,240.68692307692305L773.2141689373298,244.0653846153846L774.6594005449591,240.1261538461538L775.1411444141688,237.89692307692306L775.6228882833788,238.74153846153848L776.1046321525886,237.61307692307693L777.0681198910082,232.35846153846157L778.9950953678475,228.08692307692306L779.4768392370572,226.47384615384615L779.958583106267,222.7076923076923L780.4403269754769,220.97L781.4038147138965,224.92307692307693L781.8855585831062,225.09615384615387L782.367302452316,222.14000000000001L782.8490463215259,222.3130769230769L783.3307901907357,217.3630769230769L784.7760217983652,211.21538461538464L785.257765667575,209.10384615384612L785.7395095367847,202.14615384615385L786.2212534059946,201.87615384615384L786.7029972752043,197.71538461538464L788.1482288828337,194.1153846153846L788.6299727520436,190.7161538461538L789.1117166212533,198.2069230769231L789.5934604904633,198.74L790.075204359673,199.66769230769228L792.0021798365123,195.32692307692307L792.4839237057221,200.75461538461536L792.9656675749319,198.2207692307692L793.4474114441417,208.7438461538462L793.9291553133515,211.34000000000003L795.3743869209809,225.47L795.8561307901907,211.07L795.8561307901907,218.2146153846154L796.3378746594005,211.2846153846154L796.8196185286104,209.00692307692304L798.2648501362397,204.56230769230766L798.7465940054497,206.5907692307692L799.2283378746595,206.61846153846156L799.7100817438692,216.58076923076925L800.1918256130791,223.5176923076923L801.6370572207084,223.23384615384617L802.1188010899183,211.35384615384612L802.600544959128,209.5676923076923L803.0822888283378,211.27076923076925L803.5640326975476,204.44461538461542L805.0092643051771,200.02076923076922L805.4910081743869,200.00692307692304L805.9727520435968,203.5792307692308L806.9362397820164,206.21L807.4179836512262,211.0423076923077L809.3449591280654,207.10307692307694L809.8267029972752,204.20230769230767L810.308446866485,204.0569230769231L810.7901907356949,208.6676923076923L811.7536784741145,206.96461538461537L812.2354223433242,203.7246153846154L812.7171662125342,200.4846153846154L813.1989100817439,197.95076923076925L813.6806539509538,192.73076923076923L815.125885558583,185.0253846153846L815.6076294277929,183.76538461538462L816.0893732970028,184.6723076923077L816.5711171662125,191.8169230769231L817.0528610354223,190.1L818.4980926430518,190.88230769230765L818.9798365122616,193.58923076923077L819.4615803814714,195.1469230769231L819.9433242506813,199.60538461538462L820.425068119891,206.00923076923078L822.3520435967303,210.66153846153847L822.83378746594,212.1153846153846L823.3155313351499,208.13461538461542L823.7972752043596,208.7438461538462L824.2790190735695,213.98461538461538L825.2425068119892,200.82384615384615L825.7242506811989,192.8761538461538L826.2059945504087,191.56076923076927L826.6877384196185,187.24076923076922L827.1694822888284,177.8461538461538L828.6147138964577,179.2376923076923L829.0964577656675,177.67999999999995L829.5782016348774,194.0323076923077L830.0599455040872,196.32384615384615L830.541689373297,198.01307692307694L831.9869209809264,189.08230769230772L832.4686648501363,194.62076923076927L832.950408719346,192.66153846153847L833.4321525885559,189.82999999999998L833.9138964577658,189.65L835.359128065395,189.76769230769236L836.3226158038146,195.49307692307693L836.8043596730246,194.86999999999998L837.2861035422343,190.9515384615385L837.7678474114441,192.9107692307692L839.2130790190737,193.26384615384612L839.6948228882834,188.76384615384615L840.1765667574932,196.34461538461542L840.1765667574932,203.30923076923074L840.658310626703,203.7246153846154L842.1035422343324,207.43538461538458L842.5852861035422,200.81000000000003L843.067029972752,203.62076923076924L843.5487738419617,208.71615384615384L844.0305177111717,210.42615384615382L845.4757493188011,214.5315384615385L845.9574931880109,209.33923076923077L846.4392370572208,215.93L847.4027247956404,218.2976923076923L848.8479564032697,209.60923076923078L849.3297002724795,211.63076923076926L849.8114441416894,205.4L850.7749318801091,201.4330769230769L851.2566757493188,200.2076923076923L852.7019073569483,197.91615384615386L853.1836512261581,199.34230769230768L853.6653950953679,200.63000000000005L854.1471389645777,199.5430769230769L854.6288828337874,197.49384615384616L855.5923705722071,198.72615384615386L856.0741144414169,200.82384615384615L856.5558583106267,206.79153846153844L857.0376021798365,207.65692307692305L857.5193460490462,206.21692307692314L858.9645776566758,205.39307692307693L859.4463215258855,195.88076923076923L859.9280653950955,195.5415384615385L860.4098092643052,194.08076923076925L860.8915531335149,190.7023076923077L862.8185286103542,188.55615384615385L863.300272479564,191.24923076923076L863.7820163487738,189.5323076923077L864.2637602179836,189.6153846153846L866.6724795640326,185.30230769230766L867.1542234332426,183.7723076923077L867.6359673024523,180.5946153846154L868.1177111716621,177.56923076923078L869.5629427792916,178.0330769230769L869.5629427792916,176.9876923076923L870.0446866485013,177.4653846153846L870.5264305177112,178.2684615384615L871.0081743869209,179.36230769230767L872.9351498637602,175.9769230769231L873.41689373297,172.9238461538461L873.89863760218,173.8653846153846L874.3803814713896,179.02307692307693L875.825613079019,174.10076923076923L876.3073569482289,178.94692307692307L876.7891008174387,160.77384615384616L877.2708446866485,162.17923076923077L877.7525885558583,160.34461538461542L879.1978201634878,156.3776923076923L879.6795640326976,153.97538461538457L880.6430517711171,154.17615384615382L881.124795640327,154.91692307692307L881.6065395095367,151.76L883.0517711171663,148.79000000000002L883.533514986376,145.42538461538462L884.0152588555858,139.99076923076925L884.4970027247957,128.57461538461538L884.4970027247957,128.40153846153842L885.9422343324251,122.04615384615383L886.4239782016349,117.29692307692311L886.9057220708447,125.45923076923077L887.3874659400545,122.31615384615385L887.8692098092642,122.37846153846154L889.7961852861035,113.56538461538459L890.2779291553134,114.81846153846156L890.7596730245232,112.49923076923079L891.241416893733,108.3315384615385L892.6866485013625,106.01230769230773L893.1683923705722,99.33153846153849L893.6501362397821,94.46461538461534L894.6136239782016,93.05923076923074L895.0953678474115,92.56769230769237L896.5405994550408,100.88923076923078L897.0223433242508,102.8969230769231L897.5040871934605,102.59923076923073L897.9858310626703,94.77615384615383L898.4675749318801,92.5746153846154L899.4310626702998,87.84615384615384L899.9128065395096,76.7L900.3945504087194,61.829230769230726L900.8762942779291,64.61230769230772L901.3580381471389,64.6053846153846L902.8032697547684,53.85384615384614L903.2850136239782,50.48923076923072L903.7667574931879,52.884615384615365L904.2485013623979,55.07230769230768L904.7302452316076,57.35000000000004L906.1754768392371,49.78307692307693L906.6572207084469,44.590769230769205L907.1389645776567,42.41692307692307L907.6207084468665,47.78923076923077L908.1024523160762,54.92692307692309L910.0294277929155,41.71769230769231L910.5111716621253,34.31692307692306L910.9929155313351,37.78538461538464L911.474659400545,31.298461538461574L913.4016348773843,29.533076923076912L913.4016348773843,34.926153846153824L913.8833787465941,36.47692307692302L914.3651226158038,38.85153846153845L914.8468664850136,50.99461538461537L916.292098092643,68.37153846153845L916.7738419618529,47.89999999999998L917.2555858310626,48.84153846153845L917.7373297002725,63.310769230769196L918.2190735694822,73.32153846153845L919.6643051771117,74.20769230769227L920.1460490463217,82.11384615384617L920.6277929155314,47.69230769230769L921.1095367847412,49.284615384615364L921.5912806539509,52.53846153846153L923.0365122615804,65.70615384615384L924,66.98692307692306"/></svg>