<svg viewBox="0,0,954,500" width="954" height="500" xmlns="http://www.w3.org/2000/svg" xmlns:xlink="http://www.w3.org/1999/xlink"><g><g transform="translate(41,0)"><rect x="3" y="364" width="18" height="116" fill="#98abc5"/><rect x="22" y="288" width="18" height="192" fill="#8a89a6"/><rect x="41" y="388" width="18" height="92" fill="#7b6888"/><rect x="60" y="315" width="18" height="165" fill="#6b486b"/><rect x="79" y="27" width="18" height="453" fill="#a05d56"/><rect x="98" y="103" width="18" height="377" fill="#d0743c"/><rect x="117" y="304" width="18" height="176" fill="#ff8c00"/></g><g transform="translate(194,0)"><rect x="3" y="393" width="18" height="87" fill="#98abc5"/><rect x="22" y="340" width="18" height="140" fill="#8a89a6"/><rect x="41" y="419" width="18" height="61" fill="#7b6888"/><rect x="60" y="375" width="18" height="105" fill="#6b486b"/><rect x="79" y="180" width="18" height="300" fill="#a05d56"/><rect x="98" y="238" width="18" height="242" fill="#d0743c"/><rect x="117" y="374" width="18" height="106" fill="#ff8c00"/></g><g transform="translate(347,0)"><rect x="3" y="428" width="18" height="52" fill="#98abc5"/><rect x="22" y="388" width="18" height="92" fill="#8a89a6"/><rect x="41" y="435" width="18" height="45" fill="#7b6888"/><rect x="60" y="395" width="18" height="85" fill="#6b486b"/><rect x="79" y="251" width="18" height="229" fill="#a05d56"/><rect x="98" y="261" width="18" height="219" fill="#d0743c"/><rect x="117" y="369" width="18" height="111" fill="#ff8c00"/></g><g transform="translate(500,0)"><rect x="3" y="431" width="18" height="49" fill="#98abc5"/><rect x="22" y="397" width="18" height="83" fill="#8a89a6"/><rect x="41" y="440" width="18" height="40" fill="#7b6888"/><rect x="60" y="411" width="18" height="69" fill="#6b486b"/><rect x="79" y="276" width="18" height="204" fill="#a05d56"/><rect x="98" y="277" width="18" height="203" fill="#d0743c"/><rect x="117" y="344" width="18" height="136" fill="#ff8c00"/></g><g transform="translate(653,0)"><rect x="3" y="442" width="18" height="38" fill="#98abc5"/><rect x="22" y="413" width="18" height="67" fill="#8a89a6"/><rect x="41" y="449" width="18" height="31" fill="#7b6888"/><rect x="60" y="424" width="18" height="56" fill="#6b486b"/><rect x="79" y="326" width="18" height="154" fill="#a05d56"/><rect x="98" y="342" width="18" height="138" fill="#d0743c"/><rect x="117" y="413" width="18" height="67" fill="#ff8c00"/></g><g transform="translate(806,0)"><rect x="3" y="448" width="18" height="32" fill="#98abc5"/><rect x="22" y="423" width="18" height="57" fill="#8a89a6"/><rect x="41" y="451" width="18" height="29" fill="#7b6888"/><rect x="60" y="429" width="18" height="51" fill="#6b486b"/><rect x="79" y="345" width="18" height="135" fill="#a05d56"/><rect x="98" y="334" width="18" height="146" fill="#d0743c"/><rect x="117" y="398" width="18" height="82" fill="#ff8c00"/></g></g><g transform="translate(0,480)" fill="none" font-size="10" font-family="sans-serif" text-anchor="middle"><g class="tick" opacity="1" transform="translate(110.5,0)"><line stroke="currentColor" y2="6"/><text fill="currentColor" y="9" dy="0.71em">CA</text></g><g class="tick" opacity="1" transform="translate(263.5,0)"><line stroke="currentColor" y2="6"/><text fill="currentColor" y="9" dy="0.71em">TX</text></g><g class="tick" opacity="1" transform="translate(416.5,0)"><line stroke="currentColor" y2="6"/><text fill="currentColor" y="9" dy="0.71em">NY</text></g><g class="tick" opacity="1" transform="translate(569.5,0)"><line stroke="currentColor" y2="6"/><text fill="currentColor" y="9" dy="0.71em">FL</text></g><g class="tick" opacity="1" transform="translate(722.5,0)"><line stroke="currentColor" y2="6"/><text fill="currentColor" y="9" dy="0.71em">IL</text></g><g class="tick" opacity="1" transform="translate(875.5,0)"><line stroke="currentColor" y2="6"/><text fill="currentColor" y="9" dy="0.71em">PA</text></g></g><g transform="translate(40,0)" fill="none" font-size="10" font-family="sans-serif" text-anchor="end"><g class="tick" opacity="1" transform="translate(0,480.5)"><line stroke="currentColor" x2="-6"/><text fill="currentColor" x="-9" dy="0.32em">0M</text></g><g class="tick" opacity="1" transform="translate(0,437.5)"><line stroke="currentColor" x2="-6"/><text fill="currentColor" x="-9" dy="0.32em">1M</text></g><g class="tick" opacity="1" transform="translate(0,395.5)"><line stroke="currentColor" x2="-6"/><text fill="currentColor" x="-9" dy="0.32em">2M</text></g><g class="tick" opacity="1" transform="translate(0,352.5)"><line stroke="currentColor" x2="-6"/><text fill="currentColor" x="-9" dy="0.32em">3M</text></g><g class="tick" opacity="1" transform="translate(0,309.5)"><line stroke="currentColor" x2="-6"/><text fill="currentColor" x="-9" dy="0.32em">4M</text></g><g class="tick" opacity="1" transform="translate(0,266.5)"><line stroke="currentColor" x2="-6"/><text fill="currentColor" x="-9" dy="0.32em">5M</text></g><g class="tick" opacity="1" transform="translate(0,224.5)"><line stroke="currentColor" x2="-6"/><text fill="currentColor" x="-9" dy="0.32em">6M</text></g><g class="tick" opacity="1" transform="translate(0,181.5)"><line stroke="currentColor" x2="-6"/><text fill="currentColor" x="-9" dy="0.32em">7M</text></g><g class="tick" opacity="1" transform="translate(0,138.5)"><line stroke="currentColor" x2="-6"/><text fill="currentColor" x="-9" dy="0.32em">8M</text></g><g class="tick" opacity="1" transform="translate(0,95.5)"><line stroke="currentColor" x2="-6"/><text fill="currentColor" x="-9" dy="0.32em">9M</text></g><g class="tick" opacity="1" transform="translate(0,53.5)"><line stroke="currentColor" x2="-6"/><text fill="currentColor" x="-9" dy="0.32em">10M</text></g><g class="tick" opacity="1" transform="translate(0,10.5)"><line stroke="currentColor" x2="-6"/><text fill="currentColor" x="-9" dy="0.32em">11M</text><text fill="currentColor" x="3" dy="0.32em" text-anchor="start" font-weight="bold">Population</text></g></g><g transform="translate(954,0)" text-anchor="end" font-family="sans-serif" font-size="10"><g transform="translate(0,0)"><rect x="-19" width="19" height="19" fill="#ff8c00"/><text x="-24" y="9.5" dy="0.35em">65 Years and Over</text></g><g transform="translate(0,20)"><rect x="-19" width="19" height="19" fill="#d0743c"/><text x="-24" y="9.5" dy="0.35em">45 to 64 Years</text></g><g transform="translate(0,40)"><rect x="-19" width="19" height="19" fill="#a05d56"/><text x="-24" y="9.5" dy="0.35em">25 to 44 Years</text></g><g transform="translate(0,60)"><rect x="-19" width="19" height="19" fill="#6b486b"/><text x="-24" y="9.5" dy="0.35em">18 to 24 Years</text></g><g transform="translate(0,80)"><rect x="-19" width="19" height="19" fill="#7b6888"/><text x="-24" y="9.5" dy="0.35em">14 to 17 Years</text></g><g transform="translate(0,100)"><rect x="-19" width="19" height="19" fill="#8a89a6"/><text x="-24" y="9.5" dy="0.35em">5 to 13 Years</text></g><g transform="translate(0,120)"><rect x="-19" width="19" height="19" fill="#98abc5"/><text x="-24" y="9.5" dy="0.35em">Under 5 Years</text></g></g></svg>